<?xml version="1.0" encoding="utf-8"?>
<!-- Generator: Adobe Illustrator 15.0.0, SVG Export Plug-In . SVG Version: 6.00 Build 0)  -->
<!DOCTYPE svg PUBLIC "-//W3C//DTD SVG 1.1//EN" "http://www.w3.org/Graphics/SVG/1.1/DTD/svg11.dtd">
<svg version="1.1" id="Capa_1" xmlns="http://www.w3.org/2000/svg" xmlns:xlink="http://www.w3.org/1999/xlink" x="0px" y="0px"
	 width="23.269px" height="23.269px" viewBox="0.865 3.365 23.269 23.269" enable-background="new 0.865 3.365 23.269 23.269"
	 xml:space="preserve">
<path fill="#FFFFFF" d="M15.328,15l8.223-8.223c0.777-0.778,0.777-2.05,0-2.828c-0.777-0.778-2.051-0.778-2.828,0L12.5,12.172
	L4.277,3.949c-0.778-0.778-2.05-0.778-2.828,0c-0.778,0.778-0.778,2.05,0,2.828L9.672,15l-8.223,8.223
	c-0.778,0.777-0.778,2.051,0,2.828c0.778,0.777,2.05,0.777,2.828,0l8.223-8.223l8.223,8.223c0.777,0.777,2.051,0.777,2.828,0
	s0.777-2.051,0-2.828L15.328,15z"/>
</svg>
