<?xml version="1.0" encoding="iso-8859-1"?>
<!-- Generator: Adobe Illustrator 16.0.0, SVG Export Plug-In . SVG Version: 6.00 Build 0)  -->
<!DOCTYPE svg PUBLIC "-//W3C//DTD SVG 1.1//EN" "http://www.w3.org/Graphics/SVG/1.1/DTD/svg11.dtd">
<svg xmlns="http://www.w3.org/2000/svg" xmlns:xlink="http://www.w3.org/1999/xlink" version="1.1" id="Capa_1" x="0px" y="0px" width="512px" height="512px" viewBox="0 0 612 612" style="enable-background:new 0 0 612 612;" xml:space="preserve">
<g>
	<g id="menu">
		<g>
			<path d="M420.75,267.75h-229.5c-21.133,0-38.25,17.117-38.25,38.25c0,21.133,17.117,38.25,38.25,38.25h229.5     c21.133,0,38.25-17.117,38.25-38.25C459,284.867,441.883,267.75,420.75,267.75z M420.75,401.625h-229.5     c-21.133,0-38.25,17.117-38.25,38.25s17.117,38.25,38.25,38.25h229.5c21.133,0,38.25-17.117,38.25-38.25     S441.883,401.625,420.75,401.625z M420.75,133.875h-229.5c-21.133,0-38.25,17.117-38.25,38.25s17.117,38.25,38.25,38.25h229.5     c21.133,0,38.25-17.117,38.25-38.25S441.883,133.875,420.75,133.875z M554.625,0H57.375C25.685,0,0,25.685,0,57.375v497.25     C0,586.315,25.685,612,57.375,612h497.25c31.69,0,57.375-25.685,57.375-57.375V57.375C612,25.685,586.315,0,554.625,0z      M535.5,516.375c0,10.557-8.568,19.125-19.125,19.125H95.625c-10.557,0-19.125-8.568-19.125-19.125V95.625     c0-10.557,8.568-19.125,19.125-19.125h420.75c10.557,0,19.125,8.568,19.125,19.125V516.375z" fill="#FFFFFF"/>
		</g>
	</g>
</g>
<g>
</g>
<g>
</g>
<g>
</g>
<g>
</g>
<g>
</g>
<g>
</g>
<g>
</g>
<g>
</g>
<g>
</g>
<g>
</g>
<g>
</g>
<g>
</g>
<g>
</g>
<g>
</g>
<g>
</g>
</svg>
