<?xml version="1.0" encoding="utf-8"?>
<!-- Generator: Adobe Illustrator 15.0.0, SVG Export Plug-In . SVG Version: 6.00 Build 0)  -->
<!DOCTYPE svg PUBLIC "-//W3C//DTD SVG 1.1//EN" "http://www.w3.org/Graphics/SVG/1.1/DTD/svg11.dtd">
<svg version="1.1" id="Capa_1" xmlns="http://www.w3.org/2000/svg" xmlns:xlink="http://www.w3.org/1999/xlink" x="0px" y="0px"
	 width="450.946px" height="655.668px" viewBox="35.349 38.745 450.946 655.668"
	 enable-background="new 35.349 38.745 450.946 655.668" xml:space="preserve">
<g>
	<path fill="#2B977E" d="M394.595,367.521c0.43,0.072,0.873,0.09,1.314,0.053c18.735-1.643,55.648-20.818,67.701-38.175
		c23.869-34.377,23.303-90.096,19.061-105.472c-0.542-1.946-2.183-3.423-4.183-3.754l-0.111-0.019
		c-2.041-0.291-4.073,0.663-5.167,2.429c-14.615,23.681-31.211,34.638-42.559,39.659l-12.611,5.578l7.446-11.604
		c40.485-63.089,24.246-149.319-40.41-214.57c-1.492-1.496-3.932-1.953-5.861-1.069c-1.979,0.904-3.195,2.969-3.028,5.139
		c6.116,80.145-14.233,109.146-37.133,128.544l-6.886,5.835l0.065-9.026c0.143-19.864-8.971-44.074-24.377-64.761
		c-1.182-1.576-3.276-2.38-5.237-1.983c-1.96,0.404-3.536,1.932-4.008,3.893c-4.867,20.328-23.929,34.705-44.113,49.928
		c-36.359,27.414-77.551,58.472-30.098,130.842c0.475,0.716,1.103,1.296,1.852,1.706c1.661,0.91,3.777,0.832,5.378-0.211
		c2.388-1.568,3.061-4.811,1.487-7.219c-42.104-64.203-9.786-88.573,27.635-116.788c15.589-11.75,31.708-23.9,41.092-39.325
		l3.712-6.101l3.455,6.25c13.711,24.801,16.598,48.125,7.92,63.992c-1.162,2.126-0.714,4.75,1.095,6.383
		c0.721,0.64,1.639,1.076,2.631,1.24c1.355,0.225,2.71-0.074,3.814-0.841c29.778-20.669,63.528-44.093,63.196-127.026l-0.046-11.887
		l7.426,9.281c26.217,32.765,40.897,68.946,42.458,104.627c1.58,36.189-10.462,69.269-34.822,95.66
		c-1.324,1.433-1.734,3.467-1.071,5.313c0.639,1.753,2.192,3.046,4.048,3.354l0.166,0.024c14.679,1.942,40.164-6.514,61.436-29.663
		l7.391-8.043l-0.197,10.921c-0.251,13.853-2.641,48.679-19.399,72.824c-10.159,14.634-43.952,32.326-60.076,33.743
		c-1.392,0.121-2.646,0.775-3.539,1.84c-0.895,1.066-1.316,2.417-1.195,3.805C390.453,365.206,392.241,367.13,394.595,367.521z"/>
	<path fill="#2B977E" d="M394.368,368.884c-2.974-0.493-5.235-2.927-5.5-5.917c-0.155-1.758,0.383-3.465,1.511-4.813
		c1.135-1.349,2.724-2.176,4.479-2.329c15.859-1.396,49.083-18.777,59.063-33.155c16.541-23.831,18.903-58.333,19.152-72.061
		l0.132-7.281l-4.928,5.362c-21.605,23.514-47.612,32.085-62.634,30.099l-0.189-0.028c-2.366-0.393-4.33-2.019-5.142-4.248
		c-0.839-2.337-0.319-4.911,1.355-6.722c24.106-26.115,36.022-58.849,34.457-94.662c-1.547-35.39-16.125-71.292-42.156-103.826
		l-4.95-6.187l0.03,7.925c0.334,83.658-33.733,107.303-63.79,128.165c-1.402,0.974-3.116,1.354-4.828,1.069
		c-1.252-0.207-2.399-0.75-3.322-1.57c-2.293-2.07-2.861-5.389-1.39-8.078c8.445-15.444,5.56-38.283-7.916-62.662l-2.305-4.167
		l-2.476,4.067c-9.519,15.649-25.742,27.88-41.435,39.707c-18.44,13.905-35.854,27.035-43.206,44.339
		c-8.153,19.199-3.105,41.63,15.888,70.593c1.993,3.047,1.146,7.143-1.884,9.131c-1.982,1.293-4.729,1.402-6.797,0.269
		c-0.952-0.521-1.738-1.246-2.341-2.154c-21.459-32.728-26.853-60.071-16.493-83.599c9.057-20.567,28.302-35.077,46.912-49.109
		c19.98-15.068,38.85-29.302,43.601-49.147c0.597-2.479,2.588-4.412,5.071-4.924c2.444-0.494,5.149,0.542,6.623,2.508
		c15.583,20.924,24.798,45.446,24.652,65.6l-0.045,6.017l4.593-3.889c22.619-19.164,42.717-47.857,36.646-127.387
		c-0.209-2.743,1.33-5.355,3.834-6.5c1.163-0.533,2.479-0.699,3.799-0.48c1.381,0.229,2.664,0.879,3.612,1.831
		c65.125,65.724,81.438,152.643,40.596,216.29l-4.965,7.738l8.408-3.72c11.17-4.941,27.511-15.739,41.942-39.12
		c1.385-2.235,3.95-3.44,6.537-3.071l0.133,0.02c2.535,0.421,4.609,2.284,5.296,4.749c4.29,15.551,4.867,71.886-19.257,106.629
		c-12.237,17.625-49.692,37.095-68.715,38.763C395.47,368.997,394.913,368.974,394.368,368.884z M476.098,236.096l-0.263,14.563
		c-0.253,13.979-2.675,49.134-19.646,73.586c-10.335,14.89-44.696,32.891-61.091,34.331c-1.021,0.09-1.944,0.569-2.603,1.352
		c-0.652,0.781-0.965,1.775-0.875,2.797c0.152,1.733,1.47,3.146,3.2,3.435c0.318,0.053,0.646,0.064,0.973,0.038
		c18.467-1.619,54.817-20.499,66.683-37.587c23.612-34.007,23.06-89.111,18.863-104.316c-0.397-1.431-1.606-2.515-3.075-2.758
		l-0.102-0.017c-1.481-0.21-2.971,0.492-3.777,1.792c-14.801,23.981-31.647,35.095-43.174,40.194l-16.816,7.438l9.93-15.473
		c40.128-62.532,23.96-148.072-40.229-212.852c-1.051-1.052-2.955-1.403-4.305-0.786c-1.455,0.665-2.351,2.183-2.228,3.778
		c6.164,80.765-14.437,110.068-37.617,129.704l-9.183,7.781l0.088-12.035c0.142-19.574-8.868-43.471-24.103-63.926
		c-0.845-1.127-2.447-1.738-3.856-1.456c-1.438,0.296-2.593,1.42-2.939,2.862c-4.98,20.809-24.235,35.332-44.621,50.708
		c-18.331,13.819-37.282,28.109-46.049,48.017c-9.953,22.604-4.631,49.087,16.272,80.966c0.35,0.526,0.807,0.95,1.361,1.253
		c1.193,0.654,2.813,0.589,3.958-0.158c1.756-1.152,2.244-3.534,1.086-5.306c-19.544-29.804-24.667-53.06-16.119-73.186
		c7.639-17.985,25.34-31.332,44.08-45.462c15.489-11.673,31.498-23.741,40.743-38.939l4.947-8.134l4.606,8.333
		c13.944,25.224,16.833,49.034,7.925,65.323c-0.854,1.563-0.522,3.494,0.81,4.695c0.516,0.46,1.206,0.783,1.929,0.903
		c0.999,0.166,1.994-0.051,2.801-0.613c29.5-20.475,62.934-43.68,62.605-125.885l-0.064-15.849l9.902,12.374
		c26.399,32.996,41.187,69.453,42.759,105.431c1.598,36.565-10.569,69.989-35.187,96.657c-0.973,1.053-1.273,2.552-0.787,3.91
		c0.469,1.287,1.61,2.231,2.974,2.458l0.146,0.021c14.312,1.894,39.274-6.445,60.212-29.232L476.098,236.096z"/>
</g>
<g>
	<path fill="#2B977E" d="M104.705,611.633h35.797c3.707,0,6.712-3.007,6.712-6.713v-35.797c0-13.57-11.039-24.611-24.61-24.611
		c-13.57,0-24.609,11.041-24.609,24.611v35.797C97.994,608.626,100.999,611.633,104.705,611.633z M111.417,569.123
		c0-6.169,5.018-11.187,11.187-11.187s11.187,5.018,11.187,11.187v29.085h-22.373V569.123z"/>
	<path fill="#2B977E" d="M350.81,611.633h35.797c3.708,0,6.713-3.007,6.713-6.713v-35.797c0-13.57-11.04-24.611-24.61-24.611
		s-24.61,11.041-24.61,24.611v35.797C344.099,608.626,347.104,611.633,350.81,611.633z M357.522,569.123
		c0-6.169,5.018-11.187,11.187-11.187s11.187,5.018,11.187,11.187v29.085h-22.373V569.123z"/>
	<path fill="#2B977E" d="M455.964,504.241v-66.706c0-11.104-9.032-20.138-20.136-20.138h-8.949
		c-11.103,0-20.136,9.034-20.136,20.138v20.617h-13.424v-20.617c0-10.348-7.846-18.894-17.899-20.01v-47.111
		c0-0.213-0.012-0.425-0.031-0.635c-0.009-0.088-0.022-0.173-0.034-0.259c-0.016-0.118-0.032-0.239-0.056-0.358
		c-0.019-0.104-0.043-0.206-0.068-0.309c-0.022-0.099-0.047-0.196-0.074-0.293c-0.031-0.109-0.066-0.215-0.103-0.321
		c-0.016-0.046-0.026-0.091-0.043-0.136l-31.322-85.43c-0.97-2.644-3.485-4.401-6.302-4.401c-2.817,0-5.333,1.757-6.303,4.401
		l-10.021,27.333H170.563l-10.021-27.333c-0.97-2.645-3.486-4.401-6.303-4.401s-5.331,1.757-6.303,4.401l-31.322,85.43
		c-0.016,0.045-0.027,0.09-0.043,0.136c-0.036,0.106-0.07,0.212-0.102,0.321c-0.027,0.097-0.052,0.194-0.074,0.293
		c-0.024,0.103-0.05,0.204-0.069,0.309c-0.022,0.119-0.039,0.238-0.056,0.358c-0.012,0.086-0.025,0.171-0.033,0.259
		c-0.02,0.211-0.032,0.423-0.032,0.635v47.078c-10.203,0.972-18.211,9.588-18.211,20.043v20.617H84.569v-20.617
		c0-11.104-9.032-20.138-20.136-20.138h-8.95c-11.103,0-20.135,9.034-20.135,20.138v66.706c0,8.75,5.611,16.21,13.423,18.98v109.701
		c-7.812,2.771-13.423,10.23-13.423,18.98V687.7c0,3.706,3.005,6.713,6.712,6.713h353.496h13.152h40.544
		c3.706,0,6.711-3.007,6.711-6.713v-35.797c0-8.75-5.612-16.21-13.424-18.98V523.222
		C450.352,520.451,455.964,512.991,455.964,504.241z M337.387,304.482l21.713,59.221h-43.425L337.387,304.482z M316.142,323.431
		l-14.765,40.271H190.25l-14.766-40.271H316.142z M154.239,304.482l21.713,59.221h-43.425L154.239,304.482z M129.63,377.126h49.221
		v43.136c0,3.707,3.005,6.713,6.712,6.713s6.712-3.006,6.712-6.713v-43.136h107.078v43.136c0,3.707,3.005,6.713,6.711,6.713
		c3.708,0,6.712-3.006,6.712-6.713v-43.136h49.221v40.399c-10.053,1.116-17.897,9.661-17.897,20.01v20.617h-13.424v-20.617
		c0-11.104-9.033-20.138-20.136-20.138h-8.95c-11.103,0-20.136,9.034-20.136,20.138v66.706c0,8.75,5.612,16.21,13.424,18.98v21.29
		h-98.441v-21.29c7.812-2.771,13.424-10.23,13.424-18.98v-66.706c0-11.104-9.033-20.138-20.136-20.138h-8.949
		c-11.104,0-20.137,9.034-20.137,20.138v20.617h-13.424v-20.617c0-10.24-7.683-18.712-17.584-19.97V377.126z M189.724,640.344
		c3.706,0,6.712-3.005,6.712-6.711v-75.696h98.441v76.696c0,3.706,3.006,6.711,6.712,6.711c3.707,0,6.713-3.005,6.713-6.711V524.377
		h120.814v107.392H62.196V524.377h120.814v109.256C183.011,637.339,186.017,640.344,189.724,640.344z M48.771,437.535
		c0-3.702,3.012-6.713,6.712-6.713h8.95c3.702,0,6.711,3.011,6.711,6.713v27.33c0,3.706,3.006,6.711,6.712,6.711h26.849
		c3.707,0,6.712-3.005,6.712-6.711v-27.33c0-3.702,3.011-6.713,6.712-6.713h8.95c3.7,0,6.711,3.011,6.711,6.713v27.33
		c0,3.706,3.006,6.711,6.712,6.711h26.849c3.706,0,6.711-3.005,6.711-6.711v-27.33c0-3.702,3.012-6.713,6.713-6.713h8.949
		c3.7,0,6.712,3.011,6.712,6.713v66.706c0,3.701-3.012,6.712-6.712,6.712H55.483c-3.7,0-6.712-3.011-6.712-6.712V437.535z
		 M442.54,680.989h-33.831h-13.152H48.771v-29.086c0-3.701,3.012-6.711,6.712-6.711h380.345c3.701,0,6.712,3.01,6.712,6.711V680.989
		z M435.828,510.953H301.589c-3.701,0-6.712-3.011-6.712-6.712v-66.706c0-3.702,3.011-6.713,6.712-6.713h8.95
		c3.701,0,6.711,3.011,6.711,6.713v27.33c0,3.706,3.006,6.711,6.712,6.711h26.848c3.707,0,6.713-3.005,6.713-6.711v-27.33
		c0-3.702,3.011-6.713,6.711-6.713h8.95c3.701,0,6.712,3.012,6.712,6.713v27.33c0,3.706,3.005,6.711,6.711,6.711h26.849
		c3.707,0,6.712-3.005,6.712-6.711v-27.33c0-3.702,3.011-6.713,6.712-6.713h8.949c3.701,0,6.712,3.011,6.712,6.713v66.706
		C442.54,507.942,439.529,510.953,435.828,510.953z"/>
</g>
<path fill="#2B977E" d="M372.875,223.179l11.008-9.58l3.129-1.547c0.497,3.154-4.612,14.036-9.17,23.747
	c-2.098,4.465-4.472,9.527-6.839,14.844c-5.768,12.96-12.879,26.506-16.307,32.891l6.28,15.973c0.565-0.971,1.193-2.094,1.914-3.429
	c0.636-1.18,1.31-2.428,2.026-3.745c9.024-16.568,53.146-100.33,35.702-122.223c-1-1.242-2.44-2.081-4.05-2.361
	c-0.969-0.17-1.973-0.121-2.899,0.14c-2.561,0.723-4.426,2.898-4.747,5.545c-2.687,22.14-20.263,40.875-30.5,50.073
	c-14.343,12.886-30.631,21.849-38.733,21.311c-0.462-0.029-0.952-0.08-1.413-0.147c-0.175-0.024-0.348-0.052-0.519-0.083
	c-11.809-2.061-19.302-15.793-19.087-34.988c0.025-2.739-1.51-5.091-4.002-6.136c-0.462-0.195-0.943-0.336-1.436-0.422
	c-2.116-0.37-4.278,0.301-5.789,1.794c-26.795,26.503-36.566,45.23-23.648,86.137c0.745,2.358,2.72,4.086,5.153,4.511l0.193,0.032
	c0.981,0.141,1.965,0.06,2.925-0.242c3.462-1.093,5.392-4.801,4.301-8.268c-8.19-25.935-6.399-41.117,6.843-58.019l3.327-4.248
	l1.5,5.182c4.466,15.418,15.13,25.876,28.476,27.81c0.777,0.113,1.553,0.194,2.312,0.244
	C333.74,258.958,357.458,243.683,372.875,223.179z"/>
</svg>
