<?xml version="1.0" encoding="utf-8"?>
<!-- Generator: Adobe Illustrator 15.0.0, SVG Export Plug-In . SVG Version: 6.00 Build 0)  -->
<!DOCTYPE svg PUBLIC "-//W3C//DTD SVG 1.1//EN" "http://www.w3.org/Graphics/SVG/1.1/DTD/svg11.dtd">
<svg version="1.1" id="Capa_1" xmlns="http://www.w3.org/2000/svg" xmlns:xlink="http://www.w3.org/1999/xlink" x="0px" y="0px"
	 width="450.938px" height="655.664px" viewBox="0.001 0.002 450.938 655.664" enable-background="new 0.001 0.002 450.938 655.664"
	 xml:space="preserve">
<g>
	<g>
		<path fill="#CCCCCC" d="M359.248,328.774c0.432,0.07,0.873,0.092,1.313,0.055c18.734-1.643,55.648-20.819,67.701-38.176
			c23.869-34.376,23.305-90.095,19.063-105.472c-0.541-1.946-2.184-3.423-4.184-3.754l-0.109-0.019
			c-2.041-0.291-4.074,0.663-5.168,2.429c-14.615,23.681-31.211,34.638-42.561,39.659l-12.609,5.578l7.445-11.604
			c40.484-63.089,24.246-149.319-40.41-214.57c-1.49-1.496-3.934-1.953-5.859-1.069c-1.98,0.904-3.195,2.969-3.027,5.139
			c6.115,80.146-14.23,109.146-37.135,128.544l-6.886,5.835l0.063-9.026c0.144-19.864-8.971-44.074-24.377-64.761
			c-1.182-1.576-3.274-2.38-5.235-1.983c-1.961,0.404-3.537,1.932-4.01,3.893c-4.865,20.328-23.929,34.705-44.112,49.928
			c-36.359,27.414-77.551,58.472-30.099,130.842c0.475,0.716,1.103,1.296,1.853,1.706c1.66,0.91,3.776,0.832,5.377-0.211
			c2.389-1.568,3.062-4.811,1.488-7.219c-42.104-64.203-9.787-88.573,27.635-116.788c15.588-11.75,31.708-23.9,41.092-39.325
			l3.711-6.101l3.455,6.25c13.711,24.801,16.601,48.125,7.92,63.992c-1.16,2.126-0.713,4.75,1.097,6.383
			c0.721,0.64,1.639,1.076,2.631,1.24c1.354,0.225,2.711-0.074,3.813-0.841c29.777-20.669,63.527-44.093,63.195-127.026
			l-0.045-11.887l7.426,9.281c26.217,32.765,40.895,68.946,42.457,104.627c1.58,36.189-10.461,69.269-34.822,95.66
			c-1.322,1.433-1.732,3.467-1.07,5.313c0.641,1.753,2.191,3.046,4.051,3.354l0.166,0.024c14.678,1.942,40.162-6.514,61.436-29.663
			l7.391-8.043l-0.193,10.921c-0.25,13.853-2.645,48.679-19.398,72.824c-10.158,14.635-43.951,32.326-60.076,33.743
			c-1.393,0.121-2.645,0.774-3.539,1.84c-0.895,1.065-1.314,2.417-1.193,3.806C355.107,326.46,356.892,328.383,359.248,328.774z"/>
		<path fill="#CCCCCC" d="M359.019,330.14c-2.975-0.494-5.232-2.928-5.5-5.917c-0.152-1.758,0.385-3.465,1.514-4.813
			c1.135-1.35,2.723-2.176,4.479-2.329c15.859-1.396,49.084-18.777,59.064-33.155c16.541-23.831,18.9-58.333,19.148-72.061
			l0.137-7.281l-4.932,5.362c-21.604,23.514-47.609,32.085-62.635,30.099l-0.188-0.028c-2.365-0.393-4.33-2.019-5.146-4.248
			c-0.838-2.337-0.318-4.911,1.355-6.722c24.105-26.115,36.021-58.849,34.457-94.662c-1.549-35.39-16.125-71.292-42.156-103.826
			l-4.949-6.187l0.029,7.925c0.334,83.658-33.732,107.303-63.789,128.165c-1.402,0.974-3.117,1.354-4.828,1.069
			c-1.252-0.207-2.396-0.75-3.322-1.57c-2.293-2.07-2.858-5.389-1.391-8.078c8.445-15.444,5.563-38.283-7.916-62.662l-2.305-4.167
			l-2.479,4.067c-9.519,15.649-25.74,27.88-41.435,39.707c-18.44,13.905-35.854,27.035-43.206,44.339
			c-8.153,19.199-3.105,41.63,15.888,70.593c1.992,3.047,1.146,7.143-1.885,9.131c-1.981,1.293-4.729,1.402-6.796,0.269
			c-0.952-0.521-1.738-1.246-2.341-2.154c-21.459-32.728-26.853-60.071-16.493-83.599c9.057-20.567,28.302-35.077,46.912-49.109
			c19.98-15.068,38.85-29.302,43.602-49.147c0.598-2.479,2.588-4.412,5.069-4.924c2.445-0.494,5.149,0.542,6.623,2.508
			c15.584,20.924,24.8,45.446,24.651,65.6l-0.047,6.017l4.597-3.889c22.616-19.164,42.718-47.857,36.646-127.387
			c-0.209-2.743,1.33-5.355,3.834-6.5c1.164-0.533,2.48-0.699,3.801-0.48c1.381,0.229,2.662,0.879,3.611,1.831
			c65.125,65.724,81.438,152.643,40.596,216.29l-4.965,7.738l8.408-3.72c11.17-4.941,27.51-15.739,41.938-39.12
			c1.389-2.235,3.951-3.44,6.537-3.071l0.133,0.02c2.535,0.421,4.609,2.284,5.301,4.749c4.289,15.551,4.863,71.886-19.262,106.628
			c-12.232,17.625-49.688,37.095-68.715,38.763C360.123,330.25,359.566,330.229,359.019,330.14z M440.75,197.351l-0.264,14.563
			c-0.252,13.979-2.678,49.134-19.646,73.586c-10.336,14.89-44.697,32.891-61.092,34.331c-1.021,0.09-1.943,0.568-2.604,1.352
			c-0.65,0.781-0.965,1.775-0.875,2.797c0.152,1.733,1.473,3.146,3.201,3.436c0.316,0.053,0.646,0.064,0.975,0.037
			c18.467-1.618,54.814-20.498,66.682-37.586c23.613-34.007,23.061-89.111,18.863-104.316c-0.396-1.431-1.605-2.515-3.074-2.758
			l-0.104-0.017c-1.48-0.21-2.971,0.492-3.775,1.792c-14.801,23.981-31.646,35.095-43.174,40.194l-16.816,7.438l9.93-15.473
			c40.129-62.532,23.961-148.072-40.229-212.852c-1.051-1.052-2.955-1.403-4.305-0.786c-1.455,0.665-2.354,2.183-2.23,3.778
			c6.164,80.765-14.438,110.068-37.617,129.704l-9.184,7.781l0.088-12.035c0.144-19.574-8.867-43.471-24.104-63.926
			c-0.848-1.127-2.445-1.738-3.855-1.456c-1.438,0.296-2.592,1.42-2.938,2.862c-4.98,20.809-24.236,35.332-44.622,50.708
			c-18.332,13.819-37.283,28.109-46.049,48.017c-9.953,22.604-4.631,49.087,16.272,80.966c0.35,0.526,0.807,0.95,1.361,1.253
			c1.192,0.654,2.813,0.589,3.957-0.158c1.756-1.152,2.244-3.534,1.086-5.306c-19.543-29.804-24.667-53.06-16.119-73.186
			c7.639-17.985,25.34-31.332,44.08-45.462c15.491-11.673,31.499-23.741,40.745-38.939l4.945-8.134l4.605,8.333
			c13.942,25.224,16.831,49.034,7.924,65.323c-0.854,1.563-0.521,3.494,0.813,4.695c0.516,0.46,1.207,0.783,1.93,0.903
			c0.998,0.166,1.994-0.051,2.801-0.613c29.5-20.475,62.934-43.68,62.604-125.885l-0.063-15.849l9.902,12.374
			c26.396,32.996,41.186,69.453,42.758,105.431c1.6,36.565-10.568,69.989-35.188,96.657c-0.975,1.053-1.271,2.552-0.787,3.91
			c0.471,1.287,1.609,2.231,2.975,2.458l0.146,0.021c14.313,1.894,39.273-6.445,60.213-29.232L440.75,197.351z"/>
	</g>
	<g>
		<path fill="#CCCCCC" d="M69.358,572.887h35.797c3.707,0,6.712-3.008,6.712-6.713v-35.797c0-13.57-11.039-24.611-24.61-24.611
			c-13.57,0-24.609,11.041-24.609,24.611v35.797C62.647,569.879,65.652,572.887,69.358,572.887z M76.07,530.377
			c0-6.17,5.018-11.188,11.187-11.188s11.187,5.018,11.187,11.188v29.084H76.071L76.07,530.377L76.07,530.377z"/>
		<path fill="#CCCCCC" d="M315.46,572.887h35.799c3.707,0,6.713-3.008,6.713-6.713v-35.797c0-13.57-11.041-24.611-24.609-24.611
			c-13.57,0-24.609,11.041-24.609,24.611v35.797C308.75,569.879,311.755,572.887,315.46,572.887z M322.173,530.377
			c0-6.17,5.02-11.188,11.189-11.188c6.168,0,11.188,5.018,11.188,11.188v29.084h-22.373v-29.084H322.173z"/>
		<path fill="#CCCCCC" d="M420.617,465.495V398.79c0-11.104-9.031-20.141-20.135-20.141h-8.949
			c-11.105,0-20.139,9.033-20.139,20.141v20.617H357.97V398.79c0-10.35-7.846-18.896-17.896-20.012v-47.109
			c0-0.213-0.014-0.426-0.031-0.635c-0.01-0.09-0.021-0.176-0.033-0.262c-0.018-0.117-0.033-0.236-0.057-0.355
			c-0.021-0.104-0.043-0.207-0.068-0.311c-0.02-0.102-0.047-0.195-0.074-0.293c-0.027-0.107-0.063-0.215-0.104-0.32
			c-0.016-0.047-0.025-0.092-0.043-0.137l-31.32-85.431c-0.971-2.644-3.484-4.401-6.303-4.401c-2.816,0-5.334,1.757-6.304,4.401
			l-10.021,27.333h-150.5l-10.021-27.333c-0.97-2.645-3.486-4.401-6.303-4.401c-2.817,0-5.331,1.757-6.303,4.401l-31.322,85.431
			c-0.016,0.045-0.027,0.09-0.043,0.137c-0.036,0.104-0.07,0.213-0.102,0.32c-0.027,0.098-0.052,0.191-0.074,0.293
			c-0.024,0.104-0.05,0.203-0.069,0.311c-0.022,0.119-0.039,0.236-0.056,0.355c-0.012,0.086-0.025,0.172-0.033,0.262
			c-0.02,0.211-0.032,0.422-0.032,0.635v47.078c-10.203,0.971-18.211,9.588-18.211,20.043v20.617H49.222V398.79
			c0-11.104-9.032-20.141-20.136-20.141h-8.95c-11.103,0-20.135,9.033-20.135,20.141v66.705c0,8.75,5.611,16.211,13.423,18.979
			v109.701c-7.812,2.771-13.423,10.23-13.423,18.98v35.799c0,3.705,3.005,6.713,6.712,6.713h353.496h13.152h40.545
			c3.705,0,6.711-3.008,6.711-6.713v-35.797c0-8.75-5.613-16.211-13.424-18.98V484.475
			C415.003,481.706,420.617,474.245,420.617,465.495z M302.041,265.736l21.713,59.221h-43.426L302.041,265.736z M280.792,284.686
			l-14.765,40.271H154.903l-14.766-40.271H280.792z M118.892,265.736l21.713,59.221H97.18L118.892,265.736z M94.283,338.379h49.221
			v43.138c0,3.707,3.005,6.713,6.712,6.713s6.712-3.006,6.712-6.713v-43.138h107.077v43.138c0,3.707,3.006,6.713,6.711,6.713
			c3.707,0,6.713-3.006,6.713-6.713v-43.138h49.223v40.398c-10.057,1.115-17.896,9.66-17.896,20.012v20.617h-13.424V398.79
			c0-11.104-9.033-20.141-20.139-20.141h-8.947c-11.104,0-20.139,9.033-20.139,20.141v66.705c0,8.75,5.611,16.211,13.426,18.979
			v21.291h-98.441v-21.291c7.812-2.77,13.424-10.229,13.424-18.979V398.79c0-11.104-9.033-20.141-20.136-20.141h-8.949
			c-11.104,0-20.137,9.033-20.137,20.141v20.617H111.87V398.79c0-10.24-7.683-18.713-17.584-19.973L94.283,338.379L94.283,338.379z
			 M154.377,601.598c3.706,0,6.712-3.006,6.712-6.711v-75.693h98.441v76.693c0,3.705,3.007,6.711,6.712,6.711
			c3.707,0,6.713-3.006,6.713-6.711V485.631h120.813v107.395H26.849V485.631h120.814v109.256
			C147.664,598.592,150.67,601.598,154.377,601.598z M13.424,398.79c0-3.703,3.012-6.713,6.712-6.713h8.95
			c3.702,0,6.711,3.01,6.711,6.713v27.33c0,3.705,3.006,6.711,6.712,6.711h26.849c3.707,0,6.712-3.006,6.712-6.711v-27.33
			c0-3.703,3.011-6.713,6.712-6.713h8.95c3.7,0,6.711,3.01,6.711,6.713v27.33c0,3.705,3.006,6.711,6.712,6.711h26.849
			c3.706,0,6.711-3.006,6.711-6.711v-27.33c0-3.703,3.012-6.713,6.713-6.713h8.949c3.7,0,6.712,3.01,6.712,6.713v66.705
			c0,3.701-3.012,6.713-6.712,6.713H20.136c-3.7,0-6.712-3.012-6.712-6.713V398.79z M407.193,642.243h-33.83H360.21H13.424v-29.086
			c0-3.701,3.012-6.711,6.712-6.711h380.346c3.699,0,6.711,3.01,6.711,6.711V642.243z M400.482,472.208h-134.24
			c-3.699,0-6.712-3.012-6.712-6.713V398.79c0-3.703,3.013-6.713,6.712-6.713h8.95c3.701,0,6.711,3.01,6.711,6.713v27.33
			c0,3.705,3.007,6.711,6.711,6.711h26.849c3.707,0,6.715-3.006,6.715-6.711v-27.33c0-3.703,3.01-6.713,6.711-6.713h8.949
			c3.701,0,6.713,3.012,6.713,6.713v27.33c0,3.705,3.004,6.711,6.711,6.711h26.852c3.707,0,6.713-3.006,6.713-6.711v-27.33
			c0-3.703,3.01-6.713,6.711-6.713h8.949c3.697,0,6.713,3.01,6.713,6.713v66.705C407.193,469.196,404.181,472.208,400.482,472.208z"
			/>
	</g>
	<path fill="#CCCCCC" d="M337.529,184.434l11.008-9.58l3.129-1.547c0.496,3.154-4.611,14.036-9.17,23.747
		c-2.098,4.465-4.473,9.527-6.84,14.844c-5.77,12.96-12.879,26.506-16.309,32.891l6.279,15.973c0.566-0.971,1.193-2.094,1.914-3.429
		c0.637-1.18,1.311-2.428,2.027-3.745c9.02-16.568,53.145-100.33,35.697-122.223c-1-1.242-2.438-2.081-4.049-2.361
		c-0.971-0.17-1.975-0.121-2.896,0.14c-2.564,0.723-4.43,2.898-4.746,5.545c-2.689,22.14-20.268,40.875-30.5,50.073
		c-14.346,12.886-30.633,21.849-38.732,21.311c-0.463-0.029-0.952-0.08-1.414-0.147c-0.176-0.024-0.348-0.052-0.52-0.083
		c-11.811-2.061-19.303-15.793-19.088-34.988c0.023-2.739-1.51-5.091-4.002-6.136c-0.463-0.195-0.941-0.336-1.438-0.422
		c-2.115-0.37-4.277,0.301-5.789,1.794c-26.794,26.503-36.565,45.23-23.646,86.137c0.744,2.358,2.721,4.086,5.152,4.511l0.191,0.032
		c0.979,0.141,1.965,0.06,2.926-0.242c3.461-1.093,5.393-4.801,4.301-8.268c-8.188-25.935-6.396-41.117,6.844-58.019l3.328-4.248
		l1.5,5.182c4.465,15.418,15.129,25.876,28.477,27.81c0.775,0.113,1.555,0.194,2.313,0.244
		C298.394,220.212,322.111,204.938,337.529,184.434z"/>
</g>
</svg>
