<?xml version="1.0" encoding="utf-8"?>
<!-- Generator: Adobe Illustrator 15.0.0, SVG Export Plug-In . SVG Version: 6.00 Build 0)  -->
<!DOCTYPE svg PUBLIC "-//W3C//DTD SVG 1.1//EN" "http://www.w3.org/Graphics/SVG/1.1/DTD/svg11.dtd">
<svg version="1.1" id="Layer_1" xmlns="http://www.w3.org/2000/svg" xmlns:xlink="http://www.w3.org/1999/xlink" x="0px" y="0px"
	 width="500px" height="500px" viewBox="0 0 500 500" enable-background="new 0 0 500 500" xml:space="preserve">
<g>
	<g>
		<polygon fill="#054D75" points="298.791,407.903 167.999,455.509 128.364,435.002 259.158,387.396 		"/>
		<g>
			<g>
				<g>
					<g>
						<g>
							<path fill="#E6E7E8" d="M10.421,418.058v27.737c0,5.339,4.313,8.083,9.662,6.138l368.843-134.248
								c5.335-1.938,9.665-7.831,9.665-13.171v-27.734L10.421,418.058z"/>
							<polyline fill="#E6E7E8" points="13.626,451.805 25.396,460.053 38.334,445.288 							"/>
							<path fill="#0A222B" d="M398.591,276.496V41.683c0-5.333-4.33-8.087-9.665-6.144L20.083,169.786
								c-5.35,1.948-9.662,7.841-9.662,13.177v234.813L398.591,276.496z"/>
							<polyline fill="#0A222B" points="10.421,417.775 22.45,426.446 46.266,417.775 18.811,401.009 							"/>
							<polyline fill="#0A222B" points="396.019,36.073 407.276,44.274 389.639,50.45 382.788,43.601 							"/>
							<path fill="#314754" d="M171.4,391.81c-4.1,18.271-8.21,36.538-12.303,54.813c38.289-13.943,76.574-27.875,114.881-41.816
								c-4.11-15.287-8.215-30.563-12.313-45.845C231.575,369.911,201.504,380.856,171.4,391.81z"/>
							<path fill="#FFFFFF" d="M22.45,426.446v27.738c0,5.339,4.311,8.085,9.66,6.134l368.838-134.242
								c5.334-1.941,9.668-7.834,9.668-13.172v-27.736L22.45,426.446z"/>
							<path fill="#0E303F" d="M410.616,285.168V50.356c0-5.335-4.334-8.089-9.668-6.148L32.11,178.453
								c-5.35,1.952-9.66,7.847-9.66,13.183v234.811L410.616,285.168z"/>
							<polygon fill="#66ABF7" points="38.334,404.639 38.334,191.288 394.72,61.577 394.72,274.927 							"/>
						</g>
					</g>
				</g>
				<polygon fill="#0E303F" points="159.098,446.622 151.134,444.43 157.839,414.561 167.044,411.211 				"/>
			</g>
		</g>
		<polygon fill="#0E303F" points="298.791,407.903 298.791,416.195 167.999,465.084 167.999,455.509 		"/>
		<polygon fill="#0A222B" points="167.999,465.084 128.364,443.326 128.364,435.002 167.999,455.509 		"/>
	</g>
	<g id="telephone_2_">
		<path fill="#D1D3D4" d="M474.357,332.457c0,3.255-2.646,6.865-5.894,8.05l-114.615,45.3c-3.25,1.186-5.894-0.499-5.894-3.754
			V158.087c0-3.256,2.644-6.859,5.894-8.041l118.304-43.059c3.248-1.181,5.895,0.493,5.895,3.751L474.357,332.457z"/>
		<polyline fill="#D1D3D4" points="476.309,107.194 488.149,114.624 470.367,133.745 361.394,392.897 349.432,385.406 		"/>
		<path fill="#FFFFFF" d="M489.579,341.906c0,3.254-2.645,6.867-5.892,8.05l-118.305,43.059c-3.25,1.183-5.895-0.505-5.895-3.757
			V165.294c0-3.256,2.645-6.859,5.895-8.042l118.305-43.059c3.247-1.183,5.892,0.495,5.892,3.751V341.906z"/>
		<polygon fill="#66ABF7" points="485.478,323.647 363.583,368.016 363.583,182.836 485.478,138.469 		"/>
		<path fill="#414042" d="M432.02,354.986c0-4.134-3.35-6.266-7.492-4.76c-4.136,1.508-7.476,6.072-7.476,10.211
			c0,4.132,3.34,6.269,7.476,4.763C428.67,363.692,432.02,359.123,432.02,354.986z"/>
		<path fill="#414042" d="M427.952,146.741c0-1.891-1.529-2.854-3.425-2.163c-1.886,0.687-3.416,2.763-3.416,4.651
			c0,1.881,1.53,2.858,3.416,2.171C426.423,150.711,427.952,148.62,427.952,146.741z"/>
	</g>
</g>
</svg>
