<?xml version="1.0" encoding="utf-8"?>
<!-- Generator: Adobe Illustrator 15.0.0, SVG Export Plug-In . SVG Version: 6.00 Build 0)  -->
<!DOCTYPE svg PUBLIC "-//W3C//DTD SVG 1.1//EN" "http://www.w3.org/Graphics/SVG/1.1/DTD/svg11.dtd">
<svg version="1.1" id="Capa_1" xmlns="http://www.w3.org/2000/svg" xmlns:xlink="http://www.w3.org/1999/xlink" x="0px" y="0px"
	 width="473.143px" height="727.678px" viewBox="39.139 -317.678 473.143 727.678"
	 enable-background="new 39.139 -317.678 473.143 727.678" xml:space="preserve">
<g>
	<path fill="#2B977E" d="M460.824,100.539c-0.018-0.178-0.048-0.351-0.078-0.525c-0.012-0.062-0.018-0.125-0.029-0.187
		c-0.041-0.206-0.094-0.407-0.151-0.605c-0.009-0.029-0.014-0.06-0.022-0.089c-0.062-0.202-0.135-0.4-0.213-0.595
		c-0.011-0.026-0.019-0.054-0.029-0.079c-0.076-0.185-0.165-0.364-0.256-0.54c-0.019-0.036-0.033-0.074-0.053-0.11
		c-0.087-0.164-0.185-0.32-0.285-0.476c-0.029-0.047-0.056-0.096-0.086-0.142c-0.099-0.148-0.208-0.289-0.316-0.429
		c-0.038-0.049-0.071-0.1-0.111-0.148c-0.152-0.185-0.313-0.364-0.482-0.533L364.78,2.151c-0.17-0.169-0.348-0.331-0.534-0.482
		c-0.048-0.04-0.1-0.073-0.147-0.111c-0.14-0.109-0.28-0.218-0.429-0.317c-0.046-0.031-0.095-0.057-0.142-0.086
		c-0.155-0.099-0.313-0.197-0.476-0.285c-0.035-0.02-0.073-0.035-0.109-0.053c-0.177-0.091-0.356-0.179-0.54-0.255
		c-0.026-0.011-0.054-0.019-0.079-0.029c-0.195-0.078-0.393-0.151-0.596-0.213c-0.029-0.009-0.06-0.015-0.089-0.022
		c-0.198-0.058-0.399-0.111-0.605-0.152c-0.062-0.013-0.125-0.018-0.187-0.029c-0.175-0.03-0.348-0.061-0.525-0.078
		C360.079,0.013,359.835,0,359.589,0H140.411c-21.312,0-38.65,17.338-38.65,38.65v39.628h-31.8
		c-16.995,0-30.822,13.827-30.822,30.822v78.278c0,16.995,13.827,30.822,30.822,30.822h31.8v153.151
		c0,21.311,17.338,38.649,38.65,38.649h281.8c21.312,0,38.65-17.339,38.65-38.649V101.272
		C460.861,101.026,460.849,100.782,460.824,100.539z M366.928,25.055l68.879,68.879H390.9c-13.219,0-23.973-10.754-23.973-23.973
		V25.055z M53.816,187.378V109.1c0-8.902,7.243-16.145,16.145-16.145h227.006c8.902,0,16.145,7.243,16.145,16.145v78.278
		c0,8.902-7.242,16.145-16.145,16.145H109.118c-0.006,0-0.013-0.001-0.019-0.001s-0.013,0.001-0.019,0.001h-39.12
		C61.059,203.522,53.816,196.28,53.816,187.378z M422.211,395.323h-281.8c-13.218,0-23.973-10.755-23.973-23.973V218.2h180.528
		c16.995,0,30.822-13.827,30.822-30.822V109.1c0-16.995-13.827-30.822-30.822-30.822H116.438V38.65
		c0-13.218,10.754-23.973,23.973-23.973H352.25v55.284c0,21.311,17.339,38.649,38.65,38.649h55.283v262.74
		C446.184,384.568,435.43,395.323,422.211,395.323z"/>
	<path fill="#2B977E" d="M195.206,172.211h-39.139c-4.053,0-7.338,3.286-7.338,7.338s3.286,7.339,7.338,7.339h39.139
		c12.679,0,22.994-10.315,22.994-22.994c0-12.679-10.315-22.994-22.994-22.994h-23.483c-4.586,0-8.317-3.731-8.317-8.317
		c0-4.586,3.731-8.317,8.317-8.317h31.311c4.053,0,7.339-3.286,7.339-7.338s-3.286-7.339-7.339-7.339h-31.311
		c-12.679,0-22.994,10.315-22.994,22.994c0,12.679,10.315,22.994,22.994,22.994h23.483c4.586,0,8.317,3.731,8.317,8.317
		C203.522,168.48,199.792,172.211,195.206,172.211z"/>
	<path fill="#2B977E" d="M273.483,172.211h-39.139c-4.053,0-7.338,3.286-7.338,7.338s3.286,7.339,7.338,7.339h39.139
		c12.679,0,22.994-10.315,22.994-22.994c0-12.679-10.315-22.994-22.994-22.994H250c-4.586,0-8.317-3.731-8.317-8.317
		c0-4.586,3.731-8.317,8.317-8.317h31.311c4.053,0,7.34-3.286,7.34-7.338s-3.287-7.339-7.34-7.339H250
		c-12.679,0-22.994,10.315-22.994,22.994c0,12.679,10.315,22.994,22.994,22.994h23.483c4.586,0,8.317,3.731,8.317,8.317
		C281.801,168.48,278.069,172.211,273.483,172.211z"/>
	<path fill="#2B977E" d="M109.1,186.889c8.645,0,16.971-3.738,22.842-10.254c2.712-3.012,2.471-7.652-0.54-10.364
		c-3.012-2.711-7.651-2.471-10.364,0.54c-3.138,3.483-7.376,5.401-11.937,5.401h-7.828c-8.902,0-16.145-7.243-16.145-16.145v-15.655
		c0-8.902,7.243-16.145,16.145-16.145h7.828c4.56,0,8.8,1.918,11.937,5.401c2.712,3.012,7.353,3.253,10.364,0.54
		c3.012-2.712,3.253-7.353,0.54-10.364c-5.871-6.517-14.196-10.254-22.842-10.254h-7.828c-16.995,0-30.822,13.827-30.822,30.822
		v15.655c0,16.995,13.827,30.822,30.822,30.822H109.1z"/>
</g>
<path fill="#2B977E" d="M433.988,30.828c0.473,0,0.95-0.06,1.417-0.178c19.783-5.09,55.925-32.196,65.753-52.935
	c19.465-41.075,8.955-100.674,1.676-116.395c-0.926-1.989-2.947-3.279-5.146-3.279l-0.124,0.001
	c-2.239,0.051-4.246,1.433-5.104,3.52c-11.451,27.971-27.285,42.66-38.551,50.056l-12.521,8.219l5.917-13.758
	c32.163-74.792-0.563-164.296-81.436-222.717c-1.863-1.338-4.558-1.393-6.469-0.104c-1.959,1.321-2.896,3.75-2.333,6.045
	c20.799,84.784,4.151,119.473-16.937,144.328l-6.342,7.475l-1.534-9.682c-3.377-21.309-17.443-45.628-37.627-65.055
	c-1.546-1.479-3.934-1.969-5.966-1.194c-2.027,0.78-3.445,2.698-3.602,4.882c-1.601,22.646-19.47,41.439-38.389,61.336
	c-34.085,35.835-72.7,76.433-8.994,145.539c0.636,0.683,1.412,1.193,2.287,1.499c1.942,0.68,4.195,0.22,5.724-1.182
	c2.283-2.106,2.426-5.698,0.31-7.999c-56.523-61.307-26.227-93.161,8.854-130.045c14.613-15.36,29.725-31.242,37.037-49.438
	l2.893-7.196l4.813,6.082c19.097,24.137,26.336,48.614,19.859,67.156c-0.868,2.486,0.081,5.218,2.308,6.645
	c0.885,0.557,1.946,0.861,3.039,0.861c1.492,0,2.89-0.561,3.936-1.579c28.234-27.438,60.232-58.534,45.136-147.333l-2.163-12.727
	l9.605,8.624c33.915,30.446,56.076,66.602,64.088,104.556c8.126,38.494,1.104,76.076-20.307,108.683
	c-1.163,1.77-1.241,4.023-0.204,5.883c0.996,1.765,2.891,2.874,4.933,2.874l0.184-0.003c16.07-0.529,41.875-14.118,60.551-42.702
	l6.489-9.932l1.73,11.737c2.194,14.887,5.823,52.626-7.842,81.474c-8.283,17.485-41.347,42.446-58.372,46.832
	c-1.468,0.377-2.697,1.301-3.465,2.6c-0.767,1.3-0.981,2.823-0.604,4.289C429.139,29.083,431.397,30.828,433.988,30.828z"/>
<path fill="#2B977E" d="M355.905-16.236c0.684,0.239,1.385,0.342,2.102,0.312c9.697-0.432,14.792-6.815,17.243-9.075
	c2.9-2.674,3.835-2.972,7.371-12.61c0.503-1.373,1.035-2.824,1.604-4.357c19.519-52.645,36.408-119.668,19.77-135.306
	c-1.628-1.512-4.128-1.951-6.185-1.037c-2.086,0.928-3.402,3.007-3.351,5.295c0.563,24.706-15.642,47.919-25.351,59.558
	c-13.87,16.625-30.053,28.74-39.354,29.46c-0.54,0.044-1.107,0.067-1.665,0.067c-14.106,0-25.101-14.112-28.011-35.951
	c-0.313-2.33-1.904-4.143-4.149-4.725c-2.246-0.588-4.622,0.262-5.975,2.051c-24.3,32.147-31.782,53.451-11.879,94.708
	c0.953,1.976,2.908,3.203,5.102,3.203c0.851,0,1.676-0.19,2.453-0.564c2.809-1.354,3.992-4.743,2.638-7.553
	c-13.085-27.131-13.507-44.095-1.61-64.827l4.375-7.623l3.627,8.005c6.978,15.397,19.525,24.589,33.565,24.588
	c0.802,0,1.611-0.031,2.406-0.092c16.029-1.25,38.876-21.92,51.566-45.166l10.577-12.276l4.413-3.037
	c4.397,2.642-3.03,21.535-10.049,46.392c-4.852,17.186-11.574,35.651-13.52,40.901c-0.364,0.984-0.673,1.969-0.971,2.923
	c-3.677,11.769-13.182,11.636-14.962,12.165c-2.331,0.693-5.751,5.411-5.57,9.475C352.219-19.004,353.705-17.005,355.905-16.236z"/>
</svg>
