<?xml version="1.0" encoding="utf-8"?>
<!-- Generator: Adobe Illustrator 15.0.0, SVG Export Plug-In . SVG Version: 6.00 Build 0)  -->
<!DOCTYPE svg PUBLIC "-//W3C//DTD SVG 1.1//EN" "http://www.w3.org/Graphics/SVG/1.1/DTD/svg11.dtd">
<svg version="1.1" id="Capa_1" xmlns="http://www.w3.org/2000/svg" xmlns:xlink="http://www.w3.org/1999/xlink" x="0px" y="0px"
	 width="465.62px" height="723.171px" viewBox="0.012 0.001 465.62 723.171" enable-background="new 0.012 0.001 465.62 723.171"
	 xml:space="preserve">
<g>
	<g>
		<path fill="#BBBBBB" d="M421.696,413.717c-0.02-0.178-0.047-0.35-0.076-0.521c-0.014-0.064-0.021-0.125-0.029-0.189
			c-0.041-0.205-0.094-0.406-0.148-0.604c-0.012-0.029-0.016-0.063-0.021-0.093c-0.063-0.198-0.135-0.396-0.213-0.594
			c-0.014-0.022-0.021-0.055-0.029-0.08c-0.076-0.184-0.166-0.36-0.256-0.539c-0.021-0.037-0.033-0.071-0.053-0.106
			c-0.09-0.164-0.189-0.32-0.285-0.479c-0.029-0.047-0.059-0.096-0.086-0.143c-0.102-0.148-0.209-0.289-0.316-0.428
			c-0.039-0.054-0.07-0.104-0.109-0.148c-0.15-0.186-0.314-0.365-0.48-0.533l-93.936-93.93c-0.17-0.169-0.35-0.331-0.531-0.482
			c-0.049-0.04-0.102-0.072-0.148-0.11c-0.139-0.109-0.277-0.219-0.428-0.317c-0.047-0.031-0.096-0.057-0.145-0.086
			c-0.152-0.099-0.313-0.197-0.477-0.285c-0.035-0.02-0.072-0.035-0.107-0.053c-0.18-0.091-0.355-0.179-0.541-0.255
			c-0.023-0.012-0.055-0.02-0.076-0.029c-0.195-0.078-0.396-0.151-0.6-0.213c-0.025-0.009-0.061-0.015-0.09-0.022
			c-0.195-0.058-0.395-0.11-0.604-0.151c-0.063-0.014-0.125-0.019-0.188-0.029c-0.176-0.03-0.348-0.061-0.521-0.078
			c-0.244-0.025-0.488-0.039-0.734-0.039H101.283c-21.312,0-38.65,17.338-38.65,38.65v39.628h-31.8
			c-16.995-0.002-30.821,13.824-30.821,30.82v78.274c0,16.994,13.827,30.822,30.822,30.822h31.8v153.15
			c0,21.311,17.338,38.646,38.65,38.646h281.8c21.313,0,38.648-17.338,38.648-38.646V414.451
			C421.733,414.205,421.721,413.961,421.696,413.717z M327.799,338.233l68.879,68.88h-44.904c-13.221,0-23.975-10.754-23.975-23.977
			V338.233L327.799,338.233z M14.688,500.557v-78.274c0-8.902,7.243-16.146,16.145-16.146h227.005
			c8.902,0,16.146,7.242,16.146,16.146v78.274c0,8.902-7.242,16.146-16.146,16.146H69.991c-0.006,0-0.013-0.002-0.019-0.002
			c-0.006,0-0.013,0.002-0.019,0.002H30.832C21.931,516.701,14.688,509.459,14.688,500.557z M383.083,708.502H101.283
			c-13.218,0-23.973-10.756-23.973-23.973v-153.15h180.528c16.994,0,30.82-13.828,30.82-30.822v-78.274
			c0-16.996-13.826-30.822-30.82-30.822H77.31v-39.628c0-13.218,10.754-23.974,23.973-23.974h211.838v55.287
			c0,21.311,17.34,38.646,38.648,38.646h55.281v262.74C407.055,697.746,396.301,708.502,383.083,708.502z"/>
		<path fill="#BBBBBB" d="M156.078,485.389h-39.139c-4.053,0-7.338,3.287-7.338,7.338c0,4.056,3.286,7.343,7.338,7.343h39.139
			c12.679,0,22.994-10.314,22.994-22.994c0-12.683-10.315-22.994-22.994-22.994h-23.483c-4.586,0-8.317-3.73-8.317-8.316
			s3.731-8.313,8.317-8.313h31.311c4.053,0,7.339-3.287,7.339-7.34c0-4.054-3.286-7.34-7.339-7.34h-31.311
			c-12.679,0-22.994,10.313-22.994,22.993c0,12.683,10.315,22.994,22.994,22.994h23.483c4.586,0,8.317,3.73,8.317,8.316
			C164.394,481.658,160.664,485.389,156.078,485.389z"/>
		<path fill="#BBBBBB" d="M234.355,485.389h-39.139c-4.053,0-7.338,3.287-7.338,7.338c0,4.056,3.286,7.343,7.338,7.343h39.139
			c12.679,0,22.994-10.314,22.994-22.994c0-12.683-10.315-22.994-22.994-22.994h-23.483c-4.586,0-8.317-3.73-8.317-8.316
			s3.731-8.313,8.317-8.313h31.312c4.054,0,7.341-3.287,7.341-7.34c0-4.054-3.287-7.34-7.341-7.34h-31.312
			c-12.679,0-22.994,10.313-22.994,22.993c0,12.683,10.315,22.994,22.994,22.994h23.482c4.586,0,8.316,3.73,8.316,8.316
			C242.672,481.658,238.942,485.389,234.355,485.389z"/>
		<path fill="#BBBBBB" d="M69.972,500.068c8.645,0,16.971-3.738,22.842-10.259c2.712-3.012,2.471-7.647-0.54-10.36
			c-3.012-2.711-7.651-2.474-10.364,0.541c-3.138,3.479-7.376,5.397-11.937,5.397h-7.828c-8.902,0-16.145-7.244-16.145-16.145
			v-15.656c0-8.902,7.243-16.145,16.145-16.145h7.828c4.56,0,8.8,1.918,11.937,5.397c2.712,3.017,7.353,3.254,10.364,0.541
			c3.012-2.713,3.253-7.354,0.54-10.365c-5.871-6.516-14.196-10.254-22.842-10.254h-7.828c-16.995,0-30.822,13.828-30.822,30.822
			v15.656c0,16.994,13.827,30.819,30.822,30.819h7.828V500.068L69.972,500.068z"/>
	</g>
	<g>
		<path fill="#BBBBBB" d="M385.86,350.006c0.475,0,0.949-0.06,1.418-0.178c19.781-5.09,55.926-32.196,65.752-52.936
			c19.467-41.074,8.955-100.674,1.678-116.395c-0.928-1.989-2.947-3.279-5.146-3.279l-0.121,0.001
			c-2.24,0.051-4.246,1.434-5.105,3.521c-11.451,27.971-27.285,42.66-38.551,50.056l-12.521,8.219l5.918-13.758
			c32.162-74.792-0.563-164.296-81.436-222.717c-1.863-1.338-4.563-1.394-6.471-0.104c-1.959,1.321-2.896,3.75-2.334,6.045
			c20.799,84.784,4.15,119.474-16.938,144.328l-6.342,7.476l-1.535-9.683c-3.377-21.309-17.442-45.628-37.627-65.055
			c-1.545-1.479-3.935-1.969-5.965-1.194c-2.027,0.78-3.445,2.698-3.604,4.883c-1.604,22.646-19.47,41.438-38.39,61.336
			c-34.085,35.835-72.7,76.433-8.994,145.539c0.636,0.683,1.412,1.192,2.287,1.499c1.942,0.68,4.195,0.22,5.724-1.183
			c2.283-2.105,2.426-5.698,0.311-7.999c-56.523-61.307-26.227-93.161,8.854-130.045c14.613-15.359,29.727-31.242,37.037-49.438
			l2.894-7.196l4.813,6.082c19.1,24.137,26.336,48.614,19.856,67.156c-0.866,2.485,0.082,5.218,2.31,6.645
			c0.886,0.558,1.945,0.861,3.039,0.861c1.492,0,2.892-0.562,3.938-1.579c28.231-27.438,60.229-58.534,45.136-147.333l-2.162-12.728
			l9.604,8.624C367.1,59.923,389.26,96.08,397.274,134.034c8.127,38.494,1.104,76.076-20.309,108.683
			c-1.162,1.771-1.24,4.023-0.203,5.883c0.996,1.766,2.893,2.874,4.934,2.874l0.186-0.003c16.07-0.528,41.875-14.118,60.551-42.702
			l6.49-9.932l1.729,11.737c2.193,14.887,5.822,52.626-7.844,81.474c-8.281,17.485-41.346,42.446-58.371,46.832
			c-1.469,0.377-2.695,1.301-3.465,2.6c-0.768,1.301-0.979,2.823-0.604,4.289C381.01,348.261,383.27,350.006,385.86,350.006z"/>
		<path fill="#BBBBBB" d="M385.86,351.506c-3.271,0-6.129-2.205-6.943-5.362c-0.479-1.854-0.205-3.781,0.764-5.426
			c0.977-1.647,2.531-2.815,4.387-3.291c16.742-4.313,49.252-28.843,57.391-46.021c13.484-28.473,9.887-65.86,7.713-80.613
			l-1.152-7.825l-4.326,6.621c-18.971,29.034-45.311,42.84-61.758,43.381l-0.209,0.004c-2.605,0-4.998-1.394-6.264-3.637
			c-1.313-2.355-1.215-5.205,0.256-7.444c21.189-32.265,28.137-69.455,20.094-107.549c-7.945-37.642-29.945-73.518-63.621-103.75
			l-6.402-5.75l1.439,8.485c15.23,89.575-17.07,120.965-45.566,148.659c-1.328,1.292-3.099,2.004-4.98,2.004
			c-1.379,0-2.705-0.378-3.84-1.092c-2.822-1.81-4.021-5.265-2.926-8.408c6.307-18.047-0.848-42.005-19.617-65.731l-3.209-4.055
			l-1.932,4.798c-7.418,18.459-22.626,34.447-37.335,49.907c-17.288,18.176-33.612,35.339-38.412,55.187
			c-5.324,22.02,4.072,45.156,29.57,72.812c2.676,2.911,2.498,7.449-0.396,10.118c-1.894,1.738-4.816,2.343-7.236,1.496
			c-1.11-0.389-2.082-1.026-2.889-1.893c-28.81-31.252-39.449-59.59-32.53-86.64c6.048-23.646,24.088-42.613,41.535-60.955
			c18.728-19.697,36.417-38.3,37.98-60.408c0.196-2.763,1.986-5.187,4.559-6.177c2.531-0.964,5.613-0.335,7.543,1.51
			c20.414,19.649,34.646,44.285,38.07,65.904l1.021,6.455l4.229-4.983c20.83-24.552,37.264-58.869,16.623-143
			c-0.711-2.902,0.477-5.975,2.951-7.646c1.152-0.778,2.531-1.19,3.986-1.19c1.521,0,3.01,0.469,4.195,1.32
			c81.459,58.844,114.387,149.074,81.938,224.528l-3.941,9.172l8.348-5.479c11.09-7.279,26.682-21.753,37.986-49.37
			c1.086-2.641,3.619-4.387,6.457-4.452l0.146-0.001c2.791,0,5.346,1.627,6.52,4.146c7.359,15.899,17.992,76.156-1.682,117.67
			c-9.979,21.06-46.648,48.578-66.732,53.746C387.059,351.432,386.459,351.506,385.86,351.506z M449.827,194.707l2.309,15.649
			c2.213,15.023,5.867,53.12-7.973,82.334c-8.428,17.792-42.045,43.184-59.354,47.643c-1.078,0.277-1.98,0.956-2.549,1.911
			c-0.563,0.953-0.719,2.073-0.441,3.152c0.475,1.831,2.137,3.111,4.041,3.111c0.352,0,0.703-0.044,1.049-0.132
			c19.498-5.017,55.092-31.706,64.768-52.124c19.256-40.634,8.867-99.576,1.67-115.122c-0.682-1.463-2.168-2.41-3.785-2.41
			l-0.109,0.001c-1.623,0.037-3.098,1.054-3.73,2.591c-11.596,28.326-27.672,43.227-39.113,50.739l-16.693,10.958l7.889-18.344
			c31.881-74.132-0.645-162.909-80.936-220.908c-1.314-0.941-3.414-0.979-4.754-0.077c-1.438,0.972-2.129,2.757-1.715,4.444
			c20.959,85.439,4.098,120.497-17.251,145.656l-8.454,9.968l-2.047-12.91c-3.326-20.997-17.229-45-37.186-64.209
			c-1.106-1.058-2.935-1.428-4.394-0.874c-1.485,0.573-2.522,1.981-2.641,3.588c-1.64,23.181-19.688,42.164-38.796,62.261
			c-17.183,18.065-34.95,36.744-40.804,59.632c-6.647,25.987,3.763,53.417,31.824,83.858c0.467,0.501,1.034,0.874,1.68,1.1
			c1.397,0.489,3.119,0.131,4.213-0.872c1.677-1.547,1.777-4.186,0.221-5.879c-26.239-28.459-35.86-52.466-30.278-75.549
			c4.988-20.628,21.581-38.074,39.149-56.545c14.52-15.261,29.528-31.036,36.731-48.963l3.854-9.595l6.417,8.109
			c19.423,24.547,26.749,49.544,20.102,68.582c-0.64,1.827,0.063,3.836,1.7,4.887c0.636,0.401,1.433,0.625,2.229,0.625
			c1.099,0,2.125-0.41,2.891-1.154c27.969-27.181,59.666-57.986,44.703-146.006l-2.885-16.97l12.809,11.499
			c34.15,30.66,56.477,67.094,64.555,105.363c8.211,38.894,1.113,76.868-20.521,109.816c-0.854,1.301-0.912,2.96-0.148,4.329
			c0.73,1.295,2.121,2.104,3.625,2.104l0.16-0.003c15.668-0.515,40.936-13.886,59.316-42.022L449.827,194.707z"/>
	</g>
	<g>
		<path fill="#BBBBBB" d="M312.137,300.406c0.689,0.218,1.395,0.301,2.109,0.25c9.682-0.714,14.588-7.244,16.971-9.575
			c2.822-2.757,3.748-3.082,7-12.819c0.463-1.387,0.953-2.854,1.477-4.402c17.979-53.192,32.9-120.68,15.813-135.825
			c-1.67-1.464-4.184-1.83-6.213-0.856c-2.059,0.988-3.313,3.104-3.193,5.39c1.283,24.679-14.236,48.355-23.604,60.272
			c-13.379,17.023-29.201,29.605-38.479,30.596c-0.538,0.06-1.104,0.1-1.662,0.116c-14.1,0.412-25.503-13.374-29.048-35.119
			c-0.382-2.32-2.022-4.085-4.286-4.601c-2.262-0.522-4.609,0.396-5.911,2.224c-23.352,32.842-30.208,54.356-9.108,95.014
			c1.01,1.947,3,3.117,5.192,3.053c0.853-0.025,1.668-0.239,2.437-0.636c2.768-1.435,3.852-4.857,2.416-7.626
			c-13.872-26.737-14.789-43.682-3.5-64.752l4.149-7.748l3.857,7.896c7.424,15.187,20.231,24.008,34.271,23.598
			c0.801-0.023,1.606-0.077,2.399-0.162c15.985-1.717,38.22-23.045,50.229-46.651l10.213-12.579l4.322-3.165
			c4.473,2.512-2.4,21.614-8.691,46.665c-4.35,17.321-10.527,35.974-12.32,41.278c-0.334,0.994-0.613,1.988-0.885,2.95
			c-3.332,11.871-12.836,12.016-14.604,12.597c-2.311,0.76-5.59,5.577-5.289,9.633C308.372,297.747,309.915,299.702,312.137,300.406
			z"/>
		<path fill="#BBBBBB" d="M313.838,302.171c-0.729,0-1.451-0.112-2.154-0.334c-2.809-0.892-4.764-3.366-4.979-6.304
			c-0.35-4.694,3.24-10.156,6.316-11.168c0.318-0.105,0.721-0.182,1.229-0.278c2.916-0.554,9.746-1.852,12.396-11.299
			c0.277-0.99,0.563-1.999,0.906-3.023c1.783-5.271,7.934-23.815,12.287-41.165c1.541-6.131,3.137-11.99,4.547-17.159
			c3.063-11.24,6.498-23.837,5.379-27.118l-3.059,2.238l-9.992,12.305c-12.666,24.816-35.189,45.587-51.33,47.32
			c-0.82,0.088-1.67,0.146-2.52,0.17c-14.643,0.423-28.003-8.776-35.658-24.438l-2.574-5.264l-2.766,5.166
			c-11.014,20.556-10.094,37.134,3.51,63.353c1.815,3.505,0.442,7.834-3.06,9.649c-0.971,0.502-2.008,0.772-3.082,0.804
			l-0.215,0.003c-2.683,0-5.117-1.481-6.354-3.865c-21.461-41.355-14.5-63.216,9.218-96.574c1.338-1.879,3.525-3,5.857-3
			c0.541,0,1.084,0.062,1.613,0.184c2.861,0.653,4.943,2.883,5.428,5.819c3.354,20.577,13.938,33.872,26.955,33.871
			c0.188,0,0.379-0.002,0.568-0.008c0.508-0.015,1.04-0.052,1.541-0.107c8.77-0.938,24.521-13.567,37.463-30.032
			c9.236-11.752,24.541-35.079,23.283-59.268c-0.146-2.892,1.439-5.568,4.043-6.82c0.943-0.452,2.006-0.691,3.076-0.691
			c1.775,0,3.473,0.629,4.773,1.771c22.752,20.166-8.818,118.021-15.381,137.434c-0.521,1.542-1.01,3.002-1.471,4.384
			c-2.969,8.883-4.053,10.232-6.756,12.828l-0.623,0.602c-0.283,0.276-0.604,0.615-0.963,0.996
			c-2.754,2.912-7.883,8.333-16.945,9.002C314.182,302.166,314.01,302.171,313.838,302.171z M349.881,180.52l0.842,0.473
			c4.225,2.372,1.996,11.291-3.438,31.237c-1.406,5.156-2.998,11-4.531,17.101c-4.381,17.458-10.563,36.097-12.354,41.394
			c-0.318,0.951-0.594,1.922-0.855,2.861c-3.158,11.25-11.566,12.848-14.73,13.45c-0.352,0.067-0.715,0.136-0.85,0.18
			c-1.563,0.515-4.523,4.588-4.264,8.098c0.125,1.708,1.262,3.147,2.895,3.665c0.504,0.159,1.023,0.22,1.551,0.184
			c7.9-0.583,12.334-5.271,14.982-8.071c0.393-0.414,0.738-0.78,1.045-1.08l0.645-0.62c2.193-2.108,3.104-2.98,5.982-11.601
			c0.467-1.397,0.955-2.861,1.479-4.408C357.514,216.46,370,152.881,354.518,139.161c-1.186-1.038-3.135-1.314-4.568-0.626
			c-1.512,0.726-2.434,2.28-2.346,3.96c1.311,25.166-14.426,49.194-23.922,61.276c-13.607,17.316-29.852,30.13-39.497,31.161
			c-0.583,0.064-1.185,0.106-1.776,0.124c-14.854,0.415-26.914-13.942-30.572-36.377c-0.279-1.706-1.482-3.002-3.139-3.38
			c-1.654-0.383-3.4,0.291-4.355,1.631c-22.983,32.325-29.739,53.49-9,93.454c0.719,1.386,2.133,2.247,3.689,2.247l0.127-0.002
			c0.621-0.018,1.225-0.176,1.789-0.469c2.032-1.054,2.829-3.568,1.773-5.604c-14.141-27.255-15.053-44.565-3.491-66.151
			l5.534-10.33l5.146,10.528c7.129,14.583,19.479,23.151,32.877,22.757c0.771-0.022,1.541-0.074,2.285-0.154
			c15.01-1.612,37.016-22.175,49.051-45.84l0.174-0.265l10.492-12.844L349.881,180.52z"/>
	</g>
</g>
</svg>
