<?xml version="1.0" encoding="utf-8"?>
<!-- Generator: Adobe Illustrator 15.0.0, SVG Export Plug-In . SVG Version: 6.00 Build 0)  -->
<!DOCTYPE svg PUBLIC "-//W3C//DTD SVG 1.1//EN" "http://www.w3.org/Graphics/SVG/1.1/DTD/svg11.dtd">
<svg version="1.1" id="Capa_1" xmlns="http://www.w3.org/2000/svg" xmlns:xlink="http://www.w3.org/1999/xlink" x="0px" y="0px"
	 width="465.643px" height="723.176px" viewBox="0 4.501 465.643 723.176" enable-background="new 0 4.501 465.643 723.176"
	 xml:space="preserve">
<g>
	<path fill="#2B977E" d="M421.685,418.216c-0.019-0.178-0.048-0.351-0.078-0.524c-0.012-0.063-0.019-0.125-0.029-0.188
		c-0.041-0.206-0.094-0.407-0.15-0.604c-0.01-0.029-0.015-0.061-0.022-0.09c-0.062-0.201-0.135-0.399-0.213-0.595
		c-0.011-0.025-0.02-0.054-0.029-0.079c-0.076-0.185-0.165-0.364-0.256-0.54c-0.019-0.036-0.033-0.074-0.053-0.109
		c-0.087-0.164-0.186-0.32-0.285-0.477c-0.029-0.047-0.056-0.096-0.086-0.142c-0.099-0.148-0.208-0.289-0.316-0.429
		c-0.038-0.05-0.07-0.101-0.11-0.148c-0.152-0.185-0.313-0.364-0.482-0.533l-93.933-93.93c-0.17-0.169-0.349-0.331-0.534-0.482
		c-0.048-0.04-0.1-0.072-0.147-0.11c-0.14-0.109-0.279-0.219-0.429-0.317c-0.046-0.031-0.095-0.057-0.142-0.086
		c-0.155-0.099-0.313-0.197-0.477-0.285c-0.035-0.02-0.073-0.035-0.108-0.053c-0.178-0.091-0.356-0.179-0.54-0.255
		c-0.026-0.012-0.055-0.02-0.079-0.029c-0.195-0.078-0.394-0.151-0.597-0.213c-0.028-0.009-0.06-0.015-0.089-0.022
		c-0.197-0.058-0.398-0.11-0.604-0.151c-0.063-0.014-0.125-0.019-0.188-0.029c-0.175-0.03-0.348-0.061-0.524-0.078
		c-0.243-0.025-0.487-0.039-0.733-0.039H101.271c-21.312,0-38.65,17.338-38.65,38.65v39.628h-31.8
		C13.826,395.955,0,409.782,0,426.777v78.277c0,16.995,13.827,30.822,30.822,30.822h31.8v153.15
		c0,21.312,17.338,38.649,38.65,38.649h281.8c21.313,0,38.65-17.339,38.65-38.649V418.949
		C421.722,418.703,421.709,418.459,421.685,418.216z M327.788,342.732l68.879,68.879h-44.906c-13.22,0-23.974-10.754-23.974-23.974
		L327.788,342.732L327.788,342.732z M14.676,505.055v-78.277c0-8.902,7.243-16.146,16.145-16.146h227.006
		c8.902,0,16.146,7.243,16.146,16.146v78.277c0,8.902-7.242,16.146-16.146,16.146H69.979c-0.006,0-0.013-0.001-0.019-0.001
		c-0.006,0-0.013,0.001-0.019,0.001H30.82C21.919,521.199,14.676,513.957,14.676,505.055z M383.071,713h-281.8
		c-13.218,0-23.973-10.756-23.973-23.973v-153.15h180.528c16.995,0,30.822-13.827,30.822-30.822v-78.277
		c0-16.995-13.827-30.822-30.822-30.822H77.298v-39.628c0-13.218,10.754-23.974,23.973-23.974H313.11v55.284
		c0,21.312,17.339,38.649,38.65,38.649h55.282v262.74C407.044,702.244,396.29,713,383.071,713z"/>
	<path fill="#2B977E" d="M156.066,489.888h-39.139c-4.053,0-7.338,3.286-7.338,7.338c0,4.053,3.286,7.34,7.338,7.34h39.139
		c12.679,0,22.994-10.315,22.994-22.994c0-12.68-10.315-22.994-22.994-22.994h-23.483c-4.586,0-8.317-3.731-8.317-8.317
		s3.731-8.316,8.317-8.316h31.311c4.053,0,7.339-3.286,7.339-7.339c0-4.052-3.286-7.339-7.339-7.339h-31.311
		c-12.679,0-22.994,10.315-22.994,22.994c0,12.68,10.315,22.994,22.994,22.994h23.483c4.586,0,8.317,3.731,8.317,8.317
		C164.382,486.157,160.652,489.888,156.066,489.888z"/>
	<path fill="#2B977E" d="M234.344,489.888h-39.14c-4.053,0-7.338,3.286-7.338,7.338c0,4.053,3.286,7.34,7.338,7.34h39.14
		c12.679,0,22.994-10.315,22.994-22.994c0-12.68-10.315-22.994-22.994-22.994H210.86c-4.586,0-8.317-3.731-8.317-8.317
		s3.731-8.316,8.317-8.316h31.312c4.053,0,7.34-3.286,7.34-7.339c0-4.052-3.287-7.339-7.34-7.339H210.86
		c-12.679,0-22.994,10.315-22.994,22.994c0,12.68,10.315,22.994,22.994,22.994h23.483c4.586,0,8.316,3.731,8.316,8.317
		C242.661,486.157,238.93,489.888,234.344,489.888z"/>
	<path fill="#2B977E" d="M69.96,504.566c8.645,0,16.971-3.738,22.842-10.255c2.712-3.012,2.471-7.651-0.54-10.363
		c-3.012-2.711-7.651-2.472-10.364,0.54c-3.138,3.482-7.376,5.4-11.937,5.4h-7.828c-8.902,0-16.145-7.243-16.145-16.145v-15.655
		c0-8.902,7.243-16.145,16.145-16.145h7.828c4.56,0,8.8,1.918,11.937,5.4c2.712,3.013,7.353,3.253,10.364,0.54
		c3.012-2.712,3.253-7.353,0.54-10.364c-5.871-6.517-14.196-10.254-22.842-10.254h-7.828c-16.995,0-30.822,13.827-30.822,30.822
		v15.655c0,16.995,13.827,30.822,30.822,30.822H69.96z"/>
</g>
<g>
	<path fill="#2B977E" d="M385.849,354.505c0.473,0,0.95-0.06,1.417-0.178c19.782-5.09,55.925-32.196,65.753-52.936
		c19.465-41.074,8.955-100.674,1.676-116.395c-0.926-1.989-2.947-3.279-5.146-3.279l-0.123,0.001
		c-2.239,0.051-4.246,1.434-5.104,3.521c-11.451,27.971-27.285,42.66-38.551,50.056l-12.521,8.219l5.917-13.758
		c32.163-74.792-0.563-164.296-81.436-222.717c-1.863-1.338-4.559-1.394-6.469-0.104c-1.959,1.321-2.896,3.75-2.333,6.045
		c20.799,84.784,4.15,119.474-16.938,144.328l-6.342,7.476l-1.534-9.683c-3.377-21.309-17.443-45.628-37.627-65.055
		c-1.546-1.479-3.935-1.969-5.966-1.194c-2.027,0.78-3.445,2.698-3.602,4.883c-1.602,22.646-19.471,41.438-38.39,61.336
		c-34.085,35.835-72.7,76.433-8.994,145.539c0.636,0.683,1.412,1.192,2.287,1.499c1.942,0.68,4.195,0.22,5.724-1.183
		c2.283-2.105,2.426-5.698,0.311-7.999c-56.523-61.307-26.227-93.161,8.854-130.045c14.613-15.359,29.726-31.242,37.037-49.438
		l2.893-7.196l4.813,6.082c19.098,24.137,26.336,48.614,19.859,67.156c-0.868,2.485,0.081,5.218,2.308,6.645
		c0.885,0.558,1.946,0.861,3.039,0.861c1.492,0,2.891-0.562,3.937-1.579c28.233-27.438,60.231-58.534,45.136-147.333l-2.163-12.728
		l9.605,8.624c33.914,30.446,56.075,66.603,64.088,104.557c8.126,38.494,1.104,76.076-20.308,108.683
		c-1.163,1.771-1.241,4.023-0.204,5.883c0.996,1.766,2.892,2.874,4.934,2.874l0.184-0.003c16.07-0.528,41.875-14.118,60.551-42.702
		l6.489-9.932l1.73,11.737c2.193,14.887,5.822,52.626-7.843,81.474c-8.282,17.485-41.347,42.446-58.371,46.832
		c-1.469,0.377-2.697,1.301-3.466,2.6c-0.767,1.301-0.98,2.823-0.604,4.289C380.999,352.76,383.258,354.505,385.849,354.505z"/>
	<path fill="#2B977E" d="M385.849,356.005c-3.274,0-6.13-2.205-6.945-5.362c-0.478-1.854-0.206-3.781,0.764-5.426
		c0.975-1.647,2.531-2.815,4.385-3.291c16.744-4.313,49.252-28.843,57.389-46.021c13.487-28.473,9.888-65.86,7.714-80.613
		l-1.153-7.825l-4.326,6.621c-18.97,29.034-45.311,42.84-61.758,43.381l-0.209,0.004c-2.606,0-4.998-1.394-6.264-3.637
		c-1.313-2.355-1.214-5.205,0.257-7.444c21.188-32.265,28.136-69.455,20.094-107.549c-7.946-37.642-29.947-73.518-63.622-103.75
		l-6.403-5.75l1.441,8.485c15.228,89.575-17.071,120.965-45.567,148.659c-1.329,1.292-3.099,2.004-4.983,2.004
		c-1.378,0-2.705-0.378-3.839-1.092c-2.823-1.81-4.022-5.265-2.924-8.408c6.304-18.047-0.848-42.005-19.62-65.731l-3.209-4.055
		l-1.929,4.798c-7.418,18.459-22.628,34.447-37.337,49.907c-17.288,18.176-33.612,35.339-38.412,55.187
		c-5.324,22.02,4.072,45.156,29.57,72.812c2.676,2.911,2.498,7.449-0.396,10.118c-1.894,1.738-4.816,2.343-7.236,1.496
		c-1.11-0.389-2.082-1.026-2.889-1.893c-28.81-31.252-39.449-59.59-32.53-86.64c6.048-23.646,24.088-42.613,41.535-60.955
		c18.728-19.697,36.417-38.3,37.98-60.408c0.197-2.763,1.987-5.187,4.559-6.177c2.53-0.964,5.612-0.335,7.542,1.51
		c20.414,19.649,34.646,44.285,38.071,65.904l1.022,6.455l4.229-4.983c20.831-24.552,37.263-58.869,16.624-143
		c-0.712-2.902,0.474-5.975,2.951-7.646c1.153-0.778,2.532-1.19,3.986-1.19c1.521,0,3.011,0.469,4.196,1.32
		c81.459,58.844,114.386,149.074,81.938,224.528l-3.944,9.172l8.348-5.479c11.089-7.279,26.68-21.753,37.986-49.37
		c1.086-2.641,3.621-4.387,6.458-4.452l0.146-0.001c2.792,0,5.346,1.627,6.519,4.146c7.361,15.899,17.992,76.156-1.681,117.67
		c-9.98,21.06-46.649,48.578-66.734,53.746C387.048,355.93,386.447,356.005,385.849,356.005z M449.815,199.205l2.308,15.649
		c2.213,15.023,5.867,53.12-7.972,82.334c-8.427,17.792-42.045,43.184-59.353,47.643c-1.079,0.277-1.983,0.956-2.549,1.911
		c-0.562,0.953-0.719,2.073-0.441,3.152c0.473,1.831,2.134,3.111,4.04,3.111c0.351,0,0.703-0.044,1.049-0.132
		c19.498-5.017,55.09-31.706,64.766-52.124c19.256-40.634,8.868-99.576,1.67-115.122c-0.681-1.463-2.167-2.41-3.785-2.41
		l-0.111,0.001c-1.624,0.037-3.097,1.054-3.729,2.591c-11.597,28.326-27.672,43.227-39.115,50.739l-16.695,10.958l7.89-18.344
		c31.88-74.132-0.646-162.909-80.936-220.908c-1.313-0.941-3.414-0.979-4.752-0.077c-1.44,0.972-2.129,2.757-1.715,4.444
		c20.959,85.439,4.096,120.497-17.251,145.656l-8.455,9.968l-2.046-12.91c-3.327-20.997-17.229-45-37.186-64.209
		c-1.106-1.058-2.932-1.428-4.392-0.874c-1.486,0.573-2.524,1.981-2.64,3.588c-1.639,23.181-19.688,42.164-38.797,62.261
		c-17.183,18.065-34.95,36.744-40.804,59.632c-6.647,25.987,3.763,53.417,31.824,83.858c0.467,0.501,1.034,0.874,1.68,1.1
		c1.397,0.489,3.119,0.131,4.213-0.872c1.677-1.547,1.777-4.186,0.221-5.879c-26.239-28.459-35.86-52.466-30.278-75.549
		c4.988-20.628,21.581-38.074,39.149-56.545c14.52-15.261,29.528-31.036,36.732-48.963l3.856-9.595l6.417,8.109
		c19.423,24.547,26.749,49.544,20.1,68.582c-0.638,1.827,0.062,3.836,1.701,4.887c0.635,0.401,1.431,0.625,2.229,0.625
		c1.099,0,2.125-0.41,2.891-1.154c27.968-27.181,59.666-57.986,44.703-146.006l-2.885-16.97l12.808,11.499
		c34.152,30.66,56.475,67.094,64.554,105.363c8.21,38.894,1.114,76.868-20.521,109.816c-0.854,1.301-0.911,2.96-0.148,4.329
		c0.731,1.295,2.121,2.104,3.624,2.104l0.16-0.003c15.669-0.515,40.935-13.886,59.318-42.022L449.815,199.205z"/>
</g>
<g>
	<path fill="#2B977E" d="M312.125,304.905c0.69,0.218,1.395,0.301,2.11,0.25c9.681-0.714,14.587-7.244,16.971-9.575
		c2.821-2.757,3.747-3.082,7-12.819c0.463-1.387,0.952-2.854,1.476-4.402c17.976-53.192,32.9-120.68,15.813-135.825
		c-1.671-1.464-4.183-1.83-6.213-0.856c-2.058,0.988-3.313,3.104-3.194,5.39c1.283,24.679-14.237,48.355-23.603,60.272
		c-13.379,17.023-29.202,29.605-38.478,30.596c-0.538,0.06-1.105,0.1-1.662,0.116c-14.1,0.412-25.503-13.374-29.048-35.119
		c-0.382-2.32-2.024-4.085-4.286-4.601c-2.262-0.522-4.611,0.396-5.912,2.224c-23.352,32.842-30.209,54.356-9.11,95.014
		c1.01,1.947,3,3.117,5.193,3.053c0.852-0.025,1.669-0.239,2.436-0.636c2.768-1.435,3.852-4.857,2.417-7.626
		c-13.872-26.737-14.789-43.682-3.501-64.752l4.15-7.748l3.859,7.896c7.424,15.187,20.233,24.008,34.268,23.598
		c0.802-0.023,1.609-0.077,2.402-0.162c15.986-1.717,38.22-23.045,50.227-46.651l10.214-12.579l4.323-3.165
		c4.472,2.512-2.401,21.614-8.692,46.665c-4.348,17.321-10.527,35.974-12.32,41.278c-0.335,0.994-0.614,1.988-0.885,2.95
		c-3.333,11.871-12.837,12.016-14.602,12.597c-2.31,0.76-5.591,5.577-5.29,9.633C308.359,302.245,309.903,304.2,312.125,304.905z"/>
	<path fill="#2B977E" d="M313.827,306.67c-0.728,0-1.452-0.112-2.154-0.334c-2.81-0.892-4.765-3.366-4.98-6.304
		c-0.348-4.694,3.242-10.156,6.317-11.168c0.32-0.105,0.72-0.182,1.227-0.278c2.916-0.554,9.747-1.852,12.399-11.299
		c0.278-0.99,0.563-1.999,0.907-3.023c1.782-5.271,7.933-23.815,12.287-41.165c1.54-6.131,3.137-11.99,4.546-17.159
		c3.064-11.24,6.499-23.837,5.379-27.118l-3.059,2.238l-9.991,12.305c-12.667,24.816-35.19,45.587-51.331,47.32
		c-0.821,0.088-1.669,0.146-2.519,0.17c-14.641,0.423-28.003-8.776-35.659-24.438l-2.573-5.264l-2.767,5.166
		c-11.012,20.556-10.093,37.134,3.51,63.353c1.816,3.505,0.444,7.834-3.058,9.649c-0.97,0.502-2.007,0.772-3.082,0.804l-0.215,0.003
		c-2.682,0-5.117-1.481-6.354-3.865c-21.461-41.355-14.5-63.216,9.219-96.574c1.338-1.879,3.527-3,5.859-3
		c0.542,0,1.085,0.062,1.613,0.184c2.863,0.653,4.945,2.883,5.429,5.819c3.354,20.577,13.935,33.872,26.954,33.871
		c0.188,0,0.379-0.002,0.569-0.008c0.507-0.015,1.04-0.052,1.541-0.107c8.77-0.938,24.522-13.567,37.463-30.032
		c9.236-11.752,24.542-35.079,23.284-59.268c-0.149-2.892,1.438-5.568,4.043-6.82c0.943-0.452,2.006-0.691,3.075-0.691
		c1.776,0,3.473,0.629,4.775,1.771c22.751,20.166-8.82,118.021-15.381,137.434c-0.521,1.542-1.009,3.002-1.47,4.384
		c-2.968,8.883-4.053,10.232-6.756,12.828l-0.622,0.602c-0.283,0.276-0.603,0.615-0.963,0.996
		c-2.755,2.912-7.883,8.333-16.946,9.002C314.17,306.664,313.998,306.67,313.827,306.67z M349.87,185.018l0.842,0.473
		c4.223,2.372,1.996,11.291-3.441,31.237c-1.405,5.156-2.998,11-4.53,17.101c-4.382,17.458-10.564,36.097-12.354,41.394
		c-0.32,0.951-0.594,1.922-0.857,2.861c-3.159,11.25-11.567,12.848-14.732,13.45c-0.351,0.067-0.714,0.136-0.849,0.18
		c-1.563,0.515-4.523,4.588-4.263,8.098c0.125,1.708,1.262,3.147,2.895,3.665c0.504,0.159,1.023,0.22,1.549,0.184
		c7.901-0.583,12.335-5.271,14.984-8.071c0.392-0.414,0.738-0.78,1.045-1.08l0.643-0.62c2.195-2.108,3.104-2.98,5.983-11.601
		c0.467-1.397,0.955-2.861,1.478-4.408c19.236-56.923,31.719-120.502,16.239-134.222c-1.185-1.038-3.134-1.314-4.569-0.626
		c-1.511,0.726-2.432,2.28-2.345,3.96c1.309,25.166-14.426,49.194-23.921,61.276c-13.609,17.316-29.852,30.13-39.498,31.161
		c-0.583,0.064-1.184,0.106-1.778,0.124c-14.855,0.415-26.914-13.942-30.571-36.377c-0.281-1.706-1.484-3.002-3.14-3.38
		c-1.653-0.383-3.401,0.291-4.356,1.631c-22.984,32.325-29.739,53.49-9,93.454c0.719,1.386,2.133,2.247,3.69,2.247l0.127-0.002
		c0.622-0.018,1.224-0.176,1.79-0.469c2.033-1.054,2.829-3.568,1.774-5.604c-14.141-27.255-15.054-44.565-3.491-66.151l5.534-10.33
		l5.146,10.528c7.129,14.583,19.479,23.151,32.876,22.757c0.773-0.022,1.542-0.074,2.286-0.154
		c15.01-1.612,37.014-22.175,49.05-45.84l0.173-0.265l10.492-12.844L349.87,185.018z"/>
</g>
</svg>
