<?xml version="1.0" encoding="utf-8"?>
<!-- Generator: Adobe Illustrator 15.0.0, SVG Export Plug-In . SVG Version: 6.00 Build 0)  -->
<!DOCTYPE svg PUBLIC "-//W3C//DTD SVG 1.1//EN" "http://www.w3.org/Graphics/SVG/1.1/DTD/svg11.dtd">
<svg version="1.1" id="Capa_1" xmlns="http://www.w3.org/2000/svg" xmlns:xlink="http://www.w3.org/1999/xlink" x="0px" y="0px"
	 width="435.544px" height="650.343px" viewBox="12.215 21.882 435.544 650.343"
	 enable-background="new 12.215 21.882 435.544 650.343" xml:space="preserve">
<g>
	<path fill="#525252" d="M396.386,325.625c0.436-0.117,0.857-0.291,1.256-0.514c16.894-9.572,43.346-43.402,47.228-64.869
		c7.686-42.516-16.727-94.606-27.299-107.23c-1.344-1.596-3.519-2.279-5.536-1.734l-0.113,0.031
		c-2.042,0.602-3.541,2.368-3.811,4.496c-3.579,28.505-14.47,45.909-22.978,55.487l-9.455,10.644l2.023-14.091
		c10.984-76.604-41.223-150.633-129.912-184.21c-2.044-0.766-4.53-0.148-5.964,1.508c-1.472,1.698-1.729,4.158-0.642,6.125
		c40.09,72.653,33.409,108.611,20.213,136.646l-3.969,8.431l-3.808-8.505c-8.378-18.719-27.313-37.552-50.646-50.378
		c-1.786-0.973-4.098-0.832-5.771,0.382c-1.667,1.219-2.493,3.33-2.096,5.375c4.14,21.178-7.602,42.852-20.034,65.798
		c-22.401,41.33-47.779,88.153,27.804,135.789c0.752,0.469,1.591,0.745,2.47,0.809c1.95,0.143,3.904-0.837,4.96-2.503
		c1.572-2.497,0.815-5.83-1.697-7.418c-67.061-42.257-47.149-78.995-24.094-121.534c9.605-17.717,19.539-36.036,21.741-54.545
		l0.872-7.321l5.923,4.389c23.507,17.418,36.214,38.088,34.862,56.709c-0.182,2.496,1.367,4.768,3.764,5.525
		c0.95,0.293,2.002,0.309,3.004,0.038c1.368-0.371,2.514-1.23,3.221-2.425c19.111-32.175,40.772-68.64,4.918-146.39l-5.137-11.144
		l10.95,5.535c38.666,19.538,67.961,47.228,84.718,80.072c16.995,33.313,19.861,69.542,8.29,104.769
		c-0.627,1.913-0.144,4,1.27,5.449c1.353,1.373,3.366,1.921,5.241,1.415l0.166-0.048c14.617-4.467,34.932-23.332,44.988-54.189
		l3.496-10.722l4.493,10.342c5.701,13.118,18.384,46.853,12.988,76.71c-3.27,18.099-27.426,49.196-41.964,57.439
		c-1.254,0.709-2.152,1.861-2.536,3.245c-0.381,1.384-0.2,2.833,0.509,4.085C391.504,325.225,394.008,326.269,396.386,325.625z"/>
	<path fill="#525252" d="M396.757,327.002c-3.004,0.812-6.172-0.504-7.702-3.201c-0.898-1.583-1.127-3.418-0.646-5.167
		c0.487-1.754,1.626-3.211,3.209-4.107c14.299-8.107,38.052-38.671,41.264-56.451c5.322-29.471-7.244-62.89-12.894-75.89
		l-2.996-6.895l-2.329,7.147c-10.216,31.345-30.967,50.541-45.93,55.111l-0.189,0.055c-2.392,0.645-4.933-0.042-6.649-1.786
		c-1.789-1.836-2.403-4.475-1.608-6.894c11.45-34.859,8.612-70.71-8.205-103.676C335.462,92.672,306.384,65.2,267.992,45.8
		l-7.301-3.691l3.425,7.431c36.168,78.43,14.303,115.238-4.986,147.712c-0.901,1.516-2.349,2.608-4.077,3.074
		c-1.264,0.342-2.576,0.324-3.793-0.052c-3.041-0.961-4.994-3.835-4.767-6.991c1.313-18.124-11.185-38.338-34.289-55.46l-3.95-2.926
		l-0.581,4.881c-2.234,18.778-12.23,37.218-21.899,55.05c-11.362,20.963-22.091,40.758-21.578,60.162
		c0.57,21.526,14.925,40.43,45.176,59.493c3.176,2.009,4.137,6.217,2.143,9.383c-1.307,2.064-3.839,3.344-6.27,3.166
		c-1.117-0.082-2.166-0.426-3.121-1.021c-34.181-21.542-50.965-44.912-51.318-71.45c-0.308-23.2,11.549-45.074,23.015-66.229
		c12.307-22.715,23.931-44.171,19.888-64.846c-0.502-2.584,0.538-5.253,2.653-6.798c2.083-1.513,5.067-1.698,7.295-0.483
		c23.604,12.975,42.766,32.057,51.268,51.047l2.536,5.671l2.646-5.621c13.031-27.693,19.61-63.256-20.174-135.349
		c-1.369-2.486-1.047-5.601,0.813-7.748c0.864-1,2.028-1.72,3.362-2.079c1.396-0.377,2.877-0.316,4.179,0.173
		c89.333,33.819,141.904,108.463,130.82,185.747l-1.346,9.394l6.305-7.097c8.371-9.428,19.094-26.572,22.628-54.718
		c0.341-2.692,2.234-4.924,4.821-5.686l0.135-0.037c2.562-0.691,5.31,0.17,7.011,2.191c10.693,12.766,35.379,65.429,27.609,108.4
		c-3.94,21.8-30.773,56.137-47.926,65.855C397.84,326.636,397.308,326.854,396.757,327.002z M416.612,167.259l5.996,13.791
		c5.754,13.238,18.545,47.294,13.084,77.533c-3.327,18.415-27.887,50.046-42.667,58.426c-0.924,0.521-1.584,1.368-1.866,2.384
		c-0.277,1.014-0.146,2.081,0.378,3.003c0.887,1.563,2.729,2.326,4.478,1.854c0.323-0.086,0.636-0.214,0.932-0.38
		c16.649-9.436,42.701-42.746,46.52-63.88c7.604-42.06-16.531-93.578-26.988-106.061c-0.986-1.174-2.587-1.673-4.07-1.272
		l-0.103,0.028c-1.479,0.437-2.578,1.734-2.778,3.301c-3.627,28.868-14.688,46.525-23.326,56.254l-12.605,14.191l2.694-18.788
		c10.89-75.931-40.955-149.342-129.005-182.675c-1.438-0.538-3.375-0.053-4.378,1.106c-1.082,1.248-1.272,3.059-0.473,4.503
		c40.401,73.215,33.611,109.565,20.254,137.942l-5.287,11.243l-5.076-11.341c-8.258-18.444-26.958-37.028-50.034-49.711
		c-1.277-0.697-3.044-0.583-4.246,0.286c-1.223,0.894-1.826,2.444-1.533,3.947c4.24,21.679-7.623,43.57-20.179,66.75
		c-11.293,20.835-22.97,42.378-22.671,64.833c0.338,25.495,16.687,48.087,49.981,69.072c0.553,0.344,1.165,0.545,1.814,0.593
		c1.402,0.102,2.894-0.653,3.65-1.845c1.156-1.835,0.594-4.281-1.253-5.449c-31.13-19.616-45.907-39.263-46.503-61.83
		c-0.534-20.166,10.371-40.288,21.917-61.59c9.544-17.602,19.408-35.798,21.579-54.034l1.161-9.76l7.897,5.852
		c23.907,17.714,36.825,38.839,35.437,57.957c-0.135,1.833,1.009,3.505,2.772,4.063c0.684,0.211,1.469,0.218,2.199,0.021
		c1.008-0.273,1.85-0.902,2.367-1.776c18.934-31.873,40.391-67.996,4.852-145.064l-6.853-14.857l14.604,7.379
		c38.934,19.676,68.447,47.58,85.343,80.697c17.171,33.659,20.066,70.265,8.377,105.862c-0.465,1.407-0.103,2.943,0.935,4.009
		c0.992,1.008,2.47,1.406,3.849,1.034l0.146-0.042c14.253-4.354,34.126-22.884,44.022-53.26L416.612,167.259z"/>
</g>
<g>
	<path fill="#525252" d="M316.44,298.373c0.688,0.029,1.354-0.07,1.999-0.293c8.705-3.054,11.59-10.262,13.201-12.991
		c1.905-3.229,2.676-3.756,3.248-13.498c0.079-1.388,0.167-2.854,0.265-4.406c3.316-53.267,0.296-118.897-19.14-128.563
		c-1.895-0.93-4.292-0.643-5.913,0.753c-1.642,1.417-2.27,3.669-1.596,5.738c7.291,22.33-1.085,47.902-6.728,61.159
		c-8.061,18.936-19.467,34.403-27.731,37.611c-0.479,0.188-0.989,0.365-1.496,0.518c-12.836,3.872-26.719-5.954-35.358-25.031
		c-0.924-2.034-2.869-3.247-5.072-3.16c-2.204,0.081-4.135,1.507-4.875,3.506c-13.293,35.924-14.255,57.366,15.18,89.451
		c1.41,1.537,3.527,2.118,5.521,1.516c0.773-0.234,1.475-0.634,2.078-1.187c2.185-2.003,2.33-5.412,0.328-7.598
		c-19.354-21.1-24.394-36.423-19.256-58.556l1.889-8.137l5.498,6.289c10.578,12.098,24.52,17.019,37.295,13.166
		c0.729-0.22,1.457-0.47,2.164-0.744c14.244-5.536,29.364-30.617,34.534-55.255l6.257-14.075l3.185-3.975
		c4.727,1.197,3.151,20.431,3.585,44.978c0.302,16.972-0.748,35.621-1.079,40.933c-0.06,0.995-0.07,1.977-0.082,2.927
		c-0.117,11.719-8.801,14.207-10.28,15.177c-1.929,1.271-3.748,6.502-2.466,10.151C312.326,296.865,314.228,298.276,316.44,298.373z
		"/>
	<path fill="#525252" d="M318.44,299.571c-0.668,0.18-1.36,0.257-2.061,0.227c-2.799-0.122-5.206-1.909-6.132-4.551
		c-1.482-4.221,0.459-10.123,3.03-11.814c0.267-0.177,0.612-0.346,1.056-0.56c2.537-1.23,8.485-4.114,8.578-13.441
		c0.011-0.977,0.022-1.974,0.086-2.999c0.33-5.279,1.377-23.821,1.076-40.821c-0.107-6.007-0.094-11.78-0.079-16.874
		c0.027-11.073,0.059-23.485-1.783-26.219l-2.251,2.812l-6.12,13.768c-5.477,25.911-21.001,50.554-35.384,56.143
		c-0.729,0.285-1.494,0.547-2.268,0.781c-13.33,4.014-27.873-1.116-38.778-13.592l-3.665-4.194l-1.26,5.426
		c-5.01,21.592-0.063,36.578,18.916,57.269c2.535,2.768,2.347,7.08-0.414,9.613c-0.764,0.702-1.651,1.207-2.629,1.502l-0.196,0.055
		c-2.463,0.666-5.062-0.09-6.788-1.972c-29.94-32.634-28.969-54.42-15.466-90.911c0.763-2.055,2.493-3.626,4.633-4.205
		c0.496-0.133,1.009-0.211,1.524-0.231c2.791-0.11,5.252,1.42,6.424,3.995c8.176,18.053,21.18,27.631,33.128,24.406
		c0.172-0.046,0.346-0.097,0.521-0.148c0.461-0.139,0.941-0.305,1.387-0.479c7.816-3.033,19.146-18.527,26.939-36.843
		c5.564-13.073,13.83-38.273,6.685-60.158c-0.854-2.617-0.061-5.467,2.021-7.261c0.754-0.648,1.671-1.131,2.652-1.396
		c1.631-0.44,3.343-0.283,4.819,0.442c25.874,12.87,21.146,110.493,19.936,129.932c-0.099,1.545-0.184,3.007-0.263,4.388
		c-0.523,8.888-1.185,10.394-3.023,13.445l-0.42,0.706c-0.191,0.324-0.402,0.713-0.638,1.153c-1.806,3.354-5.171,9.6-13.32,12.459
		C318.754,299.479,318.597,299.528,318.44,299.571z M321.378,179.001l0.889,0.225c4.464,1.131,4.631,9.867,4.582,29.519
		c-0.015,5.079-0.025,10.837,0.078,16.816c0.305,17.106-0.751,35.742-1.083,41.047c-0.057,0.953-0.068,1.911-0.077,2.838
		c-0.112,11.107-7.432,14.655-10.188,15.993c-0.306,0.148-0.621,0.301-0.733,0.375c-1.307,0.86-3.016,5.331-1.905,8.486
		c0.537,1.537,1.938,2.576,3.563,2.646c0.502,0.021,0.993-0.051,1.468-0.215c7.107-2.493,10.015-7.893,11.75-11.119
		c0.259-0.477,0.484-0.899,0.691-1.25l0.436-0.729c1.493-2.479,2.11-3.504,2.618-12.128c0.083-1.398,0.167-2.863,0.265-4.412
		c3.55-57.004-0.746-118.443-18.353-127.198c-1.345-0.659-3.201-0.429-4.348,0.557c-1.206,1.041-1.668,2.696-1.172,4.215
		c7.437,22.771-1.051,48.719-6.771,62.16c-8.197,19.263-19.929,35.046-28.523,38.381c-0.521,0.205-1.061,0.391-1.603,0.555
		c-13.53,4.061-28.151-6.127-37.067-25.809c-0.679-1.497-2.104-2.387-3.719-2.324c-1.611,0.059-3.049,1.109-3.594,2.576
		c-13.083,35.359-14.04,56.456,14.895,87.992c1.004,1.094,2.514,1.535,3.943,1.148l0.115-0.033c0.566-0.17,1.081-0.464,1.525-0.874
		c1.605-1.47,1.713-3.976,0.24-5.583c-19.729-21.508-24.857-37.167-19.593-59.841l2.521-10.851l7.33,8.387
		c10.155,11.617,23.61,16.419,35.808,12.739c0.705-0.212,1.396-0.45,2.062-0.708c13.375-5.197,28.473-29.521,33.655-54.219
		l0.094-0.287l6.445-14.386L321.378,179.001z"/>
</g>
<path fill="#525252" d="M417.694,332.304H20.215c-4.4,0-8,3.6-8,8v323.921c0,4.398,3.6,8,8,8h397.479c4.397,0,8-3.602,8-8V340.304
	C425.694,335.903,422.092,332.304,417.694,332.304z M402.777,341.671c3.593,0,6.506,2.913,6.506,6.506s-2.913,6.506-6.506,6.506
	s-6.506-2.913-6.506-6.506S399.185,341.671,402.777,341.671z M375.777,341.671c3.593,0,6.506,2.913,6.506,6.506
	s-2.913,6.506-6.506,6.506s-6.506-2.913-6.506-6.506S372.185,341.671,375.777,341.671z M348.777,341.671
	c3.593,0,6.506,2.913,6.506,6.506s-2.913,6.506-6.506,6.506s-6.506-2.913-6.506-6.506S345.185,341.671,348.777,341.671z
	 M21.454,372.265c0-4.4,3.6-8,8-8h99c4.4,0,8,3.6,8,8v42.999c0,4.398-3.6,8-8,8h-99c-4.4,0-8-3.602-8-8V372.265z M21.454,451.264
	c0-4.399,3.6-8,8-8h172c4.4,0,8,3.601,8,8v43c0,4.398-3.6,8-8,8h-172c-4.4,0-8-3.602-8-8V451.264z M209.454,652.264
	c0,4.398-3.6,8-8,8h-172c-4.4,0-8-3.602-8-8v-43c0-4.399,3.6-8,8-8h172c4.4,0,8,3.601,8,8V652.264z M416.454,652.264
	c0,4.398-3.603,8-8,8h-172c-4.399,0-8-3.602-8-8v-43c0-4.399,3.601-8,8-8h172c4.397,0,8,3.601,8,8V652.264z M416.454,573.264
	c0,4.398-3.603,8-8,8h-221.25c-4.4,0-11.6,0-16,0h-6.75c-4.4,0-11.6,0-16,0h-119c-4.4,0-8-3.602-8-8v-43c0-4.399,3.6-8,8-8h119
	c4.4,0,11.6,0,16,0h6.75c4.4,0,11.6,0,16,0h221.25c4.397,0,8,3.601,8,8V573.264z M416.454,494.264c0,4.398-3.603,8-8,8h-172
	c-4.399,0-8-3.602-8-8v-43c0-4.399,3.601-8,8-8h172c4.397,0,8,3.601,8,8V494.264z M416.454,415.264c0,4.398-3.603,8-8,8h-244
	c-4.4,0-8-3.602-8-8v-42.999c0-4.4,3.6-8,8-8h244c4.397,0,8,3.6,8,8V415.264z"/>
</svg>
