<?xml version="1.0" encoding="utf-8"?>
<!-- Generator: Adobe Illustrator 15.0.0, SVG Export Plug-In . SVG Version: 6.00 Build 0)  -->
<!DOCTYPE svg PUBLIC "-//W3C//DTD SVG 1.1//EN" "http://www.w3.org/Graphics/SVG/1.1/DTD/svg11.dtd">
<svg version="1.1" id="Capa_1" xmlns="http://www.w3.org/2000/svg" xmlns:xlink="http://www.w3.org/1999/xlink" x="0px" y="0px"
	 width="459.973px" height="694.107px" viewBox="15.669 0.306 459.973 694.107"
	 enable-background="new 15.669 0.306 459.973 694.107" xml:space="preserve">
<g>
	<path fill="#2B977E" d="M420.288,322.186c0.458-0.116,0.906-0.292,1.329-0.521c17.921-9.802,46.279-44.971,50.701-67.491
		c8.755-44.602-16.101-99.781-27.025-113.227c-1.387-1.7-3.663-2.453-5.796-1.911l-0.119,0.031c-2.157,0.601-3.763,2.435-4.08,4.669
		c-4.214,29.928-15.945,48.063-25.044,58.004l-10.113,11.048l2.349-14.791C415.254,117.59,361.505,38.895,268.74,2.177
		c-2.136-0.838-4.762-0.229-6.296,1.491c-1.574,1.763-1.885,4.347-0.772,6.433c41.026,77.056,33.429,114.776,19.107,144.057
		l-4.306,8.806l-3.871-9.007c-8.518-19.822-28.138-39.931-52.482-53.792c-1.863-1.052-4.298-0.939-6.076,0.311
		c-1.773,1.256-2.675,3.464-2.289,5.62c4.021,22.343-8.672,44.956-22.112,68.898c-24.216,43.122-51.65,91.975,27.105,143.275
		c0.784,0.505,1.662,0.809,2.586,0.89c2.049,0.181,4.12-0.819,5.257-2.555c1.693-2.602,0.949-6.12-1.668-7.83
		c-69.875-45.508-48.351-83.839-23.428-128.222c10.384-18.485,21.121-37.598,23.729-57.033l1.033-7.687l6.161,4.71
		c24.452,18.693,37.492,40.636,35.778,60.202c-0.229,2.622,1.362,5.037,3.872,5.872c0.995,0.323,2.099,0.356,3.158,0.087
		c1.446-0.368,2.663-1.255,3.427-2.5c20.611-33.543,43.971-71.559,7.482-153.91l-5.229-11.803l11.433,5.995
		c40.364,21.162,70.743,50.751,87.851,85.565c17.351,35.31,19.795,73.464,7.068,110.337c-0.691,2.002-0.213,4.205,1.25,5.752
		c1.4,1.466,3.51,2.074,5.49,1.571l0.176-0.048c15.447-4.468,37.112-23.991,48.179-56.292l3.845-11.223l4.565,10.95
		c5.79,13.889,18.597,49.574,12.453,80.897c-3.725,18.986-29.627,51.317-45.049,59.759c-1.33,0.726-2.294,1.924-2.719,3.373
		c-0.423,1.45-0.255,2.978,0.471,4.305C415.158,321.688,417.776,322.824,420.288,322.186z"/>
	<path fill="#2B977E" d="M420.657,323.64c-3.174,0.806-6.484-0.628-8.052-3.488c-0.92-1.68-1.13-3.614-0.596-5.446
		c0.54-1.837,1.761-3.352,3.44-4.27c15.168-8.302,40.637-40.078,44.296-58.73c6.064-30.917-6.628-66.268-12.366-80.032l-3.043-7.3
		l-2.563,7.482c-11.24,32.81-33.372,52.675-49.181,57.247l-0.201,0.055c-2.526,0.641-5.188-0.121-6.966-1.983
		c-1.854-1.959-2.459-4.746-1.584-7.277c12.594-36.488,10.175-74.244-6.996-109.187c-16.968-34.529-47.122-63.886-87.201-84.898
		l-7.621-3.997l3.485,7.869c36.807,83.072,13.228,121.446-7.575,155.301c-0.971,1.58-2.51,2.706-4.337,3.169
		c-1.335,0.34-2.715,0.3-3.989-0.114c-3.183-1.059-5.195-4.113-4.904-7.429c1.668-19.044-11.16-40.505-35.194-58.88l-4.109-3.14
		l-0.688,5.125c-2.646,19.717-13.452,38.957-23.904,57.562c-12.282,21.872-23.88,42.525-23.647,62.944
		c0.26,22.652,15.062,42.764,46.582,63.293c3.31,2.163,4.254,6.605,2.106,9.904c-1.407,2.151-4.091,3.457-6.645,3.231
		c-1.173-0.104-2.271-0.482-3.267-1.123c-35.615-23.199-52.902-48.047-52.855-75.968c0.042-24.408,12.859-47.231,25.254-69.303
		c13.304-23.7,25.869-46.086,21.943-67.898c-0.488-2.727,0.649-5.517,2.898-7.109c2.215-1.558,5.357-1.706,7.681-0.393
		c24.623,14.021,44.48,34.395,53.123,54.506l2.578,6.005l2.873-5.871c14.146-28.925,21.627-66.23-19.086-142.693
		c-1.403-2.637-1.012-5.907,0.979-8.137c0.925-1.038,2.161-1.777,3.57-2.134c1.474-0.375,3.033-0.287,4.392,0.247
		c93.437,36.984,147.56,116.332,134.682,197.452l-1.564,9.861l6.742-7.366c8.956-9.785,20.504-27.651,24.665-57.201
		c0.403-2.827,2.43-5.144,5.164-5.905l0.141-0.037c2.705-0.687,5.581,0.262,7.339,2.415c11.048,13.598,36.184,69.384,27.334,114.463
		c-4.489,22.869-33.257,58.565-51.452,68.518C421.802,323.272,421.238,323.493,420.657,323.64z M444.062,155.919l6.088,14.601
		c5.844,14.016,18.762,50.041,12.54,81.764c-3.789,19.318-30.122,52.204-45.801,60.786c-0.978,0.534-1.687,1.414-2,2.479
		c-0.309,1.062-0.186,2.186,0.349,3.164c0.908,1.658,2.834,2.49,4.681,2.021c0.341-0.086,0.671-0.216,0.984-0.386
		c17.664-9.662,45.592-44.291,49.943-66.462c8.662-44.123-15.913-98.695-26.717-111.991c-1.02-1.25-2.694-1.801-4.262-1.403
		l-0.107,0.028c-1.565,0.436-2.741,1.784-2.977,3.429c-4.268,30.309-16.181,48.708-25.423,58.806l-13.484,14.729l3.131-19.721
		C413.66,118.063,360.282,40.024,268.188,3.571c-1.504-0.588-3.55-0.108-4.624,1.095c-1.158,1.296-1.387,3.197-0.569,4.73
		c41.345,77.652,33.629,115.782,19.131,145.421l-5.741,11.743l-5.16-12.01c-8.394-19.532-27.774-39.375-51.846-53.081
		c-1.332-0.753-3.193-0.662-4.471,0.234c-1.3,0.921-1.959,2.542-1.675,4.128c4.118,22.871-8.705,45.712-22.279,69.896
		c-12.208,21.739-24.831,44.216-24.871,67.841c-0.046,26.824,16.795,50.847,51.486,73.445c0.576,0.371,1.217,0.592,1.899,0.653
		c1.474,0.13,3.055-0.641,3.869-1.883c1.245-1.912,0.693-4.494-1.232-5.752c-32.437-21.125-47.671-42.025-47.942-65.772
		c-0.243-21.221,11.545-42.215,24.027-64.441c10.317-18.365,20.98-37.35,23.551-56.498l1.375-10.249l8.215,6.28
		c24.868,19.011,38.122,41.436,36.362,61.524c-0.169,1.927,1.004,3.703,2.853,4.317c0.714,0.233,1.541,0.253,2.313,0.057
		c1.065-0.271,1.96-0.92,2.518-1.831c20.418-33.229,43.559-70.888,7.391-152.518l-6.973-15.737l15.244,7.992
		c40.647,21.312,71.251,51.13,88.501,86.232c17.531,35.677,20,74.229,7.141,111.489c-0.51,1.472-0.155,3.094,0.921,4.232
		c1.027,1.076,2.574,1.518,4.03,1.148l0.154-0.042c15.062-4.356,36.258-23.534,47.149-55.33L444.062,155.919z"/>
</g>
<g>
	<path fill="#2B977E" d="M336.623,292.258c0.724,0.042,1.427-0.052,2.107-0.277c9.207-3.075,12.355-10.612,14.093-13.457
		c2.055-3.367,2.872-3.909,3.629-14.147c0.107-1.459,0.221-3,0.347-4.631c4.33-55.98,2.185-125.064-18.105-135.538
		c-1.979-1.008-4.504-0.744-6.232,0.699c-1.75,1.464-2.445,3.824-1.77,6.011c7.319,23.604-1.896,50.371-8.04,64.227
		c-8.777,19.792-21.018,35.882-29.763,39.126c-0.507,0.19-1.048,0.368-1.583,0.521c-13.564,3.87-28.011-6.685-36.798-26.888
		c-0.94-2.154-2.968-3.46-5.287-3.404c-2.321,0.051-4.372,1.52-5.184,3.611c-14.549,37.579-15.899,60.119,14.558,94.333
		c1.458,1.639,3.676,2.283,5.784,1.681c0.819-0.234,1.56-0.643,2.204-1.216c2.33-2.072,2.538-5.656,0.466-7.987
		c-20.026-22.5-25.085-38.698-19.331-61.899l2.115-8.53l5.685,6.703c10.933,12.893,25.521,18.289,39.021,14.437
		c0.771-0.22,1.541-0.471,2.289-0.748c15.071-5.599,31.371-31.743,37.198-57.579l6.803-14.706l3.412-4.131
		c4.953,1.334,2.993,21.541,3.062,47.369c0.05,17.858-1.349,37.458-1.781,43.041c-0.08,1.046-0.106,2.078-0.132,3.077
		c-0.308,12.326-9.484,14.806-11.053,15.803c-2.05,1.306-4.046,6.781-2.755,10.639C332.319,290.607,334.297,292.122,336.623,292.258
		z"/>
	<path fill="#2B977E" d="M338.708,293.55c-0.705,0.179-1.435,0.249-2.171,0.206c-2.941-0.172-5.446-2.09-6.378-4.884
		c-1.492-4.464,0.643-10.641,3.374-12.379c0.284-0.182,0.652-0.354,1.12-0.572c2.689-1.254,8.992-4.194,9.236-14.003
		c0.027-1.028,0.054-2.076,0.136-3.154c0.431-5.548,1.826-25.035,1.777-42.923c-0.017-6.321,0.088-12.393,0.182-17.75
		c0.203-11.648,0.433-24.704-1.462-27.608l-2.413,2.922l-6.654,14.385c-6.17,27.17-22.888,52.847-38.105,58.499
		c-0.773,0.288-1.58,0.552-2.399,0.785c-14.086,4.013-29.301-1.613-40.577-14.909l-3.789-4.469l-1.41,5.688
		c-5.613,22.633-0.643,38.475,18.996,60.54c2.622,2.951,2.357,7.484-0.589,10.105c-0.817,0.726-1.756,1.243-2.79,1.539l-0.207,0.055
		c-2.6,0.661-5.324-0.175-7.11-2.181c-30.979-34.801-29.613-57.702-14.835-95.873c0.834-2.15,2.681-3.776,4.941-4.35
		c0.525-0.133,1.066-0.207,1.609-0.219c2.936-0.072,5.502,1.577,6.693,4.303c8.315,19.119,21.843,29.399,34.462,26.195
		c0.183-0.046,0.366-0.096,0.55-0.148c0.487-0.139,0.995-0.306,1.466-0.482c8.27-3.067,20.43-19.186,28.919-38.33
		c6.06-13.664,15.153-40.041,7.979-63.175c-0.856-2.766,0.023-5.751,2.24-7.605c0.803-0.67,1.775-1.164,2.812-1.427
		c1.721-0.437,3.521-0.245,5.063,0.541c27.015,13.946,20.502,116.562,18.92,136.991c-0.126,1.623-0.239,3.159-0.345,4.611
		c-0.69,9.341-1.409,10.915-3.391,14.096l-0.454,0.736c-0.208,0.338-0.434,0.744-0.689,1.203c-1.952,3.5-5.59,10.017-14.209,12.896
		C339.039,293.459,338.873,293.508,338.708,293.55z M343.699,166.769l0.932,0.251c4.677,1.26,4.715,10.452,4.354,31.123
		c-0.094,5.343-0.198,11.399-0.182,17.69c0.05,17.999-1.355,37.586-1.786,43.161c-0.077,1.001-0.103,2.009-0.127,2.984
		c-0.293,11.682-8.048,15.299-10.969,16.662c-0.323,0.151-0.658,0.307-0.777,0.383c-1.389,0.884-3.256,5.56-2.14,8.897
		c0.543,1.625,1.998,2.74,3.708,2.84c0.528,0.03,1.046-0.038,1.547-0.203c7.515-2.51,10.658-8.145,12.536-11.511
		c0.278-0.497,0.523-0.938,0.747-1.304l0.47-0.759c1.609-2.584,2.274-3.653,2.945-12.717c0.108-1.469,0.221-3.008,0.347-4.636
		c4.633-59.907,1.083-124.602-17.298-134.09c-1.403-0.714-3.361-0.502-4.582,0.518c-1.286,1.075-1.797,2.809-1.299,4.415
		c7.463,24.07-1.873,51.231-8.104,65.279c-8.927,20.133-21.516,36.55-30.612,39.924c-0.549,0.207-1.12,0.394-1.692,0.558
		c-14.297,4.059-29.518-6.889-38.585-27.733c-0.691-1.585-2.177-2.544-3.875-2.503c-1.696,0.036-3.225,1.119-3.821,2.653
		c-14.321,36.988-15.658,59.165,14.279,92.794c1.039,1.166,2.62,1.653,4.131,1.269l0.122-0.033c0.599-0.17,1.143-0.471,1.619-0.895
		c1.712-1.521,1.864-4.155,0.341-5.869c-20.414-22.936-25.561-39.489-19.666-63.256l2.822-11.374l7.578,8.938
		c10.499,12.38,24.577,17.644,37.465,13.965c0.744-0.212,1.477-0.452,2.179-0.712c14.151-5.256,30.416-30.604,36.257-56.502
		l0.104-0.3l7.007-15.031L343.699,166.769z"/>
</g>
<g>
	<path fill="#2B977E" d="M23.669,334.491c-4.4,0-8,3.6-8,8v343.922c0,4.4,3.6,8,8,8h417.478c4.4,0,8-3.6,8-8V342.491
		c0-4.4-3.6-8-8-8H23.669z M34.908,384.452c0-4.4,3.6-8,8-8h99c4.4,0,8,3.6,8,8v43c0,4.4-3.6,8-8,8h-99c-4.4,0-8-3.6-8-8V384.452z
		 M34.908,463.452c0-4.4,3.6-8,8-8h172c4.4,0,8,3.6,8,8v43c0,4.4-3.6,8-8,8h-172c-4.4,0-8-3.6-8-8V463.452z M222.908,664.452
		c0,4.4-3.6,8-8,8h-172c-4.4,0-8-3.6-8-8v-43c0-4.4,3.6-8,8-8h172c4.4,0,8,3.6,8,8V664.452z M429.908,664.452c0,4.4-3.6,8-8,8h-172
		c-4.4,0-8-3.6-8-8v-43c0-4.4,3.6-8,8-8h172c4.4,0,8,3.6,8,8V664.452z M429.908,585.452c0,4.4-3.6,8-8,8h-221.25c-4.4,0-11.6,0-16,0
		h-6.75c-4.4,0-11.6,0-16,0h-119c-4.4,0-8-3.6-8-8v-43c0-4.4,3.6-8,8-8h119c4.4,0,11.6,0,16,0h6.75c4.4,0,11.6,0,16,0h221.25
		c4.4,0,8,3.6,8,8V585.452z M429.908,506.452c0,4.4-3.6,8-8,8h-172c-4.4,0-8-3.6-8-8v-43c0-4.4,3.6-8,8-8h172c4.4,0,8,3.6,8,8
		V506.452z M429.908,427.452c0,4.4-3.6,8-8,8h-244c-4.4,0-8-3.6-8-8v-43c0-4.4,3.6-8,8-8h244c4.4,0,8,3.6,8,8V427.452z"/>
</g>
</svg>
