<svg xmlns="http://www.w3.org/2000/svg" width="367" height="67" viewBox="0 0 367 67"><style>.a{fill:#FFF;}</style><path d="M39.4 57.9h-9.1L24.3 39.7l-6.1 4.1V57.9H9V8.1h17.2c6.2 0 9.3 2.2 9.3 6.7v13.6c0 2.5-1.3 4.6-3.8 6.5L39.4 57.9zM27 23.7c0-2.2 0-3.6 0-4.1 -0.1-2-1-3-2.6-3h-6.6v16.9c2.2-1.2 4-2.2 5.3-3.1 2.5-1.8 3.8-3.2 3.9-4.4C27 25.6 27 24.9 27 23.7z" class="a"/><path d="M74.1 57.9h-9.7l-2.3-11.4h-6.4l-1.9 11.4H43L53.4 8.1h10.3L74.1 57.9zM60.3 37.8l-1.7-8 -1.5 8L60.3 37.8z" class="a"/><path d="M129.6 57.9h-9.7l-5-28.1 -5.7 28.1H98.2l-5.7-27.9L86.7 57.9h-8.9L87.4 8.1h9.8l6.4 30.8 6.1-30.8h10.3L129.6 57.9z" class="a"/><path d="M161.5 51.7c0 4.1-2 6.1-6 6.1h-14.1c-5.5 0-8.3-2-8.3-6.1v-9.2h9.1v4.1c0.2 1.9 1.3 2.8 3.4 2.8h5.2c1.4 0 2.1-0.9 2.1-2.8v-8.2c0-1.7-1.1-2.6-3.2-2.5 -2 0-5.6 0-10.6 0 -4-0.8-6-3-6-6.7v-15.6c0.5-3.1 2.3-4.9 5.5-5.4h16.1c4.5 0 6.8 1.8 6.8 5.4v9.7h-9v-4.5c-0.2-1.3-0.9-1.9-2.1-1.9h-6.8c-1.1 0.2-1.7 1-1.7 2.4v5.2c0.3 2 1.4 3 3.1 3 4.8 0 8.3 0 10.4 0 4 0.5 6 2.7 6 6.8V51.7z" class="a"/><path d="M198.1 57.9h-9V36.7h-14.1v21.1h-9V8.3h9v19.7h14.1V8.3h9V57.9z" class="a"/><path d="M233.4 57.9h-9.7l-2.3-11.4h-6.4l-1.9 11.4h-10.7L212.7 8.1h10.3L233.4 57.9zM219.6 37.8l-1.7-8 -1.5 8L219.6 37.8z" class="a"/><path d="M264.8 50.9c0 2-0.6 3.7-1.9 5 -1.3 1.3-3 1.9-5.1 1.9h-13.6c-2 0-3.8-0.6-5.5-2 -1.8-1.4-2.7-3-2.7-5V14.6c0-1.9 0.7-3.4 2.2-4.7C239.8 8.6 241.5 8 243.4 8h14c1.8 0 3.4 0.6 5 1.7s2.4 2.5 2.4 4.2v6.3h-9.3c0-1.1 0-1.7-0.1-2 -0.2-0.6-0.8-0.9-1.7-0.9h-6.2c-1.2 0-1.9 0.6-1.9 1.8v28.9c0 0.5 0.3 0.9 0.8 1.2 0.5 0.3 1.1 0.5 1.6 0.5h6.2c0.7 0 1.2-0.3 1.3-1 0-0.2 0.1-0.9 0.1-1.9h9.3V50.9z" class="a"/><path d="M298.4 57.9h-9.1l-6-18.1 -6.1 4.1V57.9h-9.2V8.1h8.6v25.3c6.1-3.2 9.2-5.7 9.2-7.5V8.1h8.6v20.2c0 2.5-1.3 4.6-3.8 6.5L298.4 57.9z" class="a"/><path d="M329 57.9h-27.6V8.3h9.1v42.3h18.5V57.9z" class="a"/><path d="M359 58h-27.1V8.3H359v9.8h-17.9v10h13.4v8.6h-13.4v12.6H359V58z" class="a"/><path d="M367 67H0V0h367V67zM2 65h363V2H2V65z" class="a"/></svg>