<?xml version="1.0" encoding="utf-8"?>
<!-- Generator: Adobe Illustrator 15.0.0, SVG Export Plug-In . SVG Version: 6.00 Build 0)  -->
<!DOCTYPE svg PUBLIC "-//W3C//DTD SVG 1.1//EN" "http://www.w3.org/Graphics/SVG/1.1/DTD/svg11.dtd">
<svg version="1.1" id="Capa_1" xmlns="http://www.w3.org/2000/svg" xmlns:xlink="http://www.w3.org/1999/xlink" x="0px" y="0px"
	 width="367.199px" height="487.878px" viewBox="75.47 82.052 367.199 487.878"
	 enable-background="new 75.47 82.052 367.199 487.878" xml:space="preserve">
<g>
	<g>
		<path fill="#CCCCCC" d="M438.097,248.994c-0.836-2.277-2.938-3.883-5.361-4.088l-0.127-0.008c-2.477-0.154-4.813,1.18-5.951,3.398
			c-11.871,23.193-26.496,34.637-36.688,40.152l-7.662,4.152l4.105-7.689c33.787-63.253,11.787-144.181-54.746-201.378
			c-0.967-0.828-2.23-1.346-3.553-1.458c-1.266-0.106-2.496,0.15-3.563,0.742c-2.277,1.273-3.535,3.858-3.129,6.434
			c11.76,74.717-5.063,103.361-24.993,123.188l-4.046,4.024l-0.413-5.692c-1.392-19.061-11.955-41.543-28.271-60.141
			c-1.543-1.746-4.179-2.521-6.449-1.868c-2.308,0.672-4.045,2.649-4.426,5.038c-2.984,19.12-19.744,34.003-37.486,49.758
			c-16.529,14.673-33.621,29.846-40.627,49.973c-8.014,23.025-0.841,48.461,21.92,77.775c0.639,0.813,1.438,1.438,2.375,1.859
			c2.041,0.912,4.627,0.603,6.404-0.771c2.711-2.107,3.203-6.043,1.092-8.771c-20.15-25.939-26.624-46.763-20.365-65.526
			c5.641-16.914,21.104-30.642,37.486-45.184c13.938-12.366,28.345-25.157,36.162-40.669l2.032-4.032l2.494,3.765
			c14.582,22.024,19.037,43.395,12.228,58.632c-1.187,2.655-0.396,5.749,1.924,7.532c0.938,0.706,2.061,1.131,3.26,1.232
			c1.643,0.139,3.234-0.351,4.49-1.378c26.826-21.994,57.24-46.925,50.588-125.979l-0.625-7.491L341.32,110
			c27.07,28.782,43.568,61.617,47.711,94.95c4.193,33.733-4.596,65.578-25.4,92.088c-1.439,1.84-1.742,4.311-0.768,6.457
			c0.932,2.047,2.912,3.434,5.182,3.629l0.18,0.012c14.352,0.74,38.285-9.332,56.926-33.196l4.252-5.44l0.428,6.895
			c0.803,12.996,1.176,45.79-12.65,69.566c-8.346,14.348-38.432,33.293-53.318,35.813c-1.65,0.276-3.086,1.181-4.059,2.541
			c-0.965,1.358-1.346,3.015-1.064,4.665c0.477,2.807,2.799,4.938,5.645,5.18c0.523,0.045,1.049,0.021,1.572-0.064
			c17.855-3.018,51.787-24.26,62.02-41.846C448.14,316.576,443.33,263.369,438.097,248.994z"/>
		<path fill="#CCCCCC" d="M355.24,204.786c-1.047-1.098-2.471-1.783-4.006-1.925c-0.936-0.088-1.877,0.034-2.732,0.351
			c-2.365,0.876-3.969,3.075-4.07,5.601c-0.863,21.131-16.059,40.171-25.037,49.642c-12.584,13.267-27.303,22.971-35,23.078
			c-0.439,0.006-0.904-0.004-1.35-0.031c-0.168-0.012-0.332-0.023-0.494-0.039c-11.314-1.057-19.441-13.469-20.693-31.631
			c-0.186-2.59-1.813-4.699-4.246-5.495c-0.451-0.15-0.914-0.248-1.391-0.29c-2.027-0.192-4.025,0.606-5.338,2.134
			c-23.322,27.082-31.139,45.521-15.828,83.213c0.881,2.172,2.873,3.654,5.208,3.875l0.183,0.014
			c0.939,0.061,1.867-0.094,2.75-0.451c3.188-1.293,4.73-4.947,3.439-8.141c-9.711-23.895-9.166-38.381,2.07-55.357l2.825-4.27
			l1.812,4.783c5.389,14.236,16.262,23.314,29.022,24.132c0.744,0.048,1.484,0.067,2.207,0.058
			c14.171-0.199,35.435-16.436,48.458-36.983l9.676-9.89l2.842-1.699c0.711,2.945-3.299,13.617-6.867,23.145
			c-1.646,4.378-3.512,9.348-5.342,14.551c-4.473,12.688-10.164,26.029-12.926,32.325l7.145,14.623
			c0.461-0.959,0.975-2.067,1.557-3.387c0.508-1.162,1.049-2.394,1.633-3.692C338.017,306.678,373.386,224.158,355.24,204.786z"/>
	</g>
	<g>
		<g id="Question_Bubble">
			<g>
				<path fill="#CCCCCC" d="M92.909,569.902c-1.436-0.113-2.833-0.559-3.965-1.293c-1.729-1.125-2.603-2.777-2.34-4.4l9.414-59.998
					c0.421-2.686,3.758-4.488,7.454-4.047c3.702,0.443,6.35,2.969,5.93,5.658l-8.272,52.703l70.125-12.305
					c3.59-0.604,7.314,1.023,8.346,3.658c1.033,2.645-1.023,5.299-4.59,5.93l-79.845,13.982
					C94.423,569.931,93.659,569.96,92.909,569.902z"/>
				<path fill="#CCCCCC" d="M217.794,564.742c-16.096-1.258-31.822-4.393-46.974-9.352l4.974-8.947
					c20.035,6.557,41.162,9.592,62.822,9.014c36.698-0.979,69.934-12.377,93.629-32.078c23.676-19.701,34.973-45.363,31.791-72.266
					c-6.537-55.501-73.443-99.039-149.158-97.025c-36.666,0.965-69.916,12.355-93.604,32.072
					c-23.692,19.711-34.989,45.369-31.807,72.25c1.807,15.475,8.223,30.197,19.047,43.773l-11.551,4.641
					c-11.895-14.91-18.926-31.074-20.918-48.059c-3.48-29.506,8.915-57.676,34.926-79.313
					c26.008-21.646,62.501-34.148,102.747-35.218c83.154-2.146,156.564,45.591,163.734,106.513
					c3.49,29.52-8.893,57.697-34.895,79.334c-26,21.629-62.508,34.135-102.762,35.207
					C232.384,565.492,225.058,565.31,217.794,564.742z"/>
			</g>
			<g>
				<g>
					<path fill="#CCCCCC" d="M208.683,425.714"/>
					<path fill="#CCCCCC" d="M182.752,425.91"/>
					<path fill="#CCCCCC" d="M195.91,436.535c-0.037-0.002-0.074-0.002-0.123-0.002c-9.838-0.119-16.913-4.104-18.038-10.15
						c-0.381-2.016,1.56-3.865,4.328-4.129c2.764-0.326,5.32,1.16,5.693,3.174c0.603,3.182,5.347,3.705,8.131,3.74
						c0.035,0,0.084,0.002,0.129,0.002c6.751,0.063,6.962-1.057,7.56-4.01c0.406-2.002,2.971-3.398,5.742-3.088
						c2.764,0.309,4.682,2.189,4.28,4.197C212.126,433.57,206.832,436.634,195.91,436.535z"/>
				</g>
				<g>
					<path fill="#CCCCCC" d="M233.521,480.564"/>
					<path fill="#CCCCCC" d="M207.785,480.326"/>
					<path fill="#CCCCCC" d="M220.528,491.046c-10.03-0.094-17.846-4.816-17.791-10.76c0.019-2.031,2.304-3.662,5.093-3.637
						c2.797,0.023,5.043,1.695,5.024,3.729c-0.011,1.531,3.293,3.26,7.744,3.303c4.448,0.039,7.778-1.635,7.789-3.156
						c0.019-2.033,2.305-3.662,5.1-3.639c2.793,0.025,5.046,1.697,5.027,3.73C238.458,486.552,230.55,491.14,220.528,491.046z"/>
				</g>
				<path fill="#CCCCCC" d="M233.401,484.248L233.401,484.248c-2.801-0.027-5.043-1.699-5.022-3.736
					c0.055-5.188,0.242-14.203,0.916-16.25c0.537-1.672,2.041-2.508,6.516-4.979c9.418-5.199,31.438-17.381,31.578-32.775
					c0.176-19.209-13.137-29.074-39.576-29.316c-14.551-0.135-25.818,2.617-32.59,7.969c-6.049,4.768-8.557,11.582-7.445,20.25
					c0.262,2.021-1.791,3.811-4.569,3.98c-2.752,0.191-5.247-1.316-5.502-3.352c-1.386-10.82,2.009-19.537,10.056-25.898
					c8.768-6.909,22.635-10.479,40.12-10.318c31.759,0.297,49.849,13.695,49.636,36.777c-0.175,19.004-24.953,32.717-35.537,38.566
					c-1.237,0.678-2.254,1.217-2.965,1.643c-0.25,2.354-0.47,8.553-0.521,13.809C238.476,482.642,236.199,484.271,233.401,484.248z
					 M202.783,480.371c0,0-0.252-11.859-0.179-19.463c0.054-5.609,7.625-9.447,16.385-13.881
					c10.595-5.367,22.603-11.459,22.687-20.758c0.072-7.891-3.211-10.334-14.045-10.434c-8.894-0.084-13.264,1.512-14.041,10.803
					c-0.166,2.027-2.467,3.6-5.357,3.428c-2.783-0.135-4.902-1.893-4.742-3.922c1.039-12.193,8.721-17.816,24.213-17.674
					c16.313,0.152,24.197,6.004,24.088,17.895c-0.121,13.092-15.643,20.963-26.99,26.711c-5.088,2.58-12.065,6.125-12.077,7.928
					c-0.072,7.531,0.176,19.283,0.178,19.297L202.783,480.371z"/>
			</g>
			<path fill="#CCCCCC" d="M220.39,527.884c-10.238-0.094-18.52-6.234-18.453-13.709c0.07-7.463,8.461-13.445,18.701-13.354
				c10.244,0.096,18.521,6.232,18.449,13.695C239.022,521.99,230.63,527.978,220.39,527.884z M220.574,508.189
				c-4.658-0.043-8.482,2.68-8.515,6.078c-0.033,3.406,3.733,6.209,8.397,6.252c4.672,0.045,8.486-2.678,8.521-6.092
				C229.003,511.021,225.242,508.232,220.574,508.189z"/>
		</g>
	</g>
</g>
</svg>
