<?xml version="1.0" encoding="utf-8"?>
<!-- Generator: Adobe Illustrator 15.0.0, SVG Export Plug-In . SVG Version: 6.00 Build 0)  -->
<!DOCTYPE svg PUBLIC "-//W3C//DTD SVG 1.1//EN" "http://www.w3.org/Graphics/SVG/1.1/DTD/svg11.dtd">
<svg version="1.1" id="Capa_1" xmlns="http://www.w3.org/2000/svg" xmlns:xlink="http://www.w3.org/1999/xlink" x="0px" y="0px"
	 width="367.198px" height="487.878px" viewBox="75.47 82.052 367.198 487.878"
	 enable-background="new 75.47 82.052 367.198 487.878" xml:space="preserve">
<g>
	<g>
		<path fill="#BBBBBB" d="M438.098,248.994c-0.837-2.277-2.938-3.883-5.363-4.088l-0.127-0.008c-2.475-0.154-4.811,1.18-5.95,3.398
			c-11.871,23.193-26.497,34.637-36.687,40.152l-7.662,4.153l4.104-7.69C420.2,221.658,398.2,140.731,331.668,83.533
			c-0.968-0.828-2.231-1.346-3.554-1.458c-1.265-0.106-2.496,0.15-3.561,0.742c-2.278,1.273-3.535,3.858-3.13,6.434
			c11.761,74.717-5.063,103.361-24.993,123.188l-4.046,4.024l-0.413-5.692c-1.391-19.061-11.955-41.543-28.271-60.141
			c-1.542-1.746-4.178-2.521-6.449-1.868c-2.307,0.672-4.045,2.649-4.425,5.038c-2.984,19.12-19.745,34.003-37.486,49.758
			c-16.53,14.673-33.621,29.846-40.628,49.973c-8.014,23.025-0.841,48.461,21.92,77.775c0.639,0.813,1.438,1.438,2.375,1.859
			c2.041,0.912,4.628,0.603,6.404-0.771c2.711-2.108,3.203-6.043,1.093-8.772c-20.151-25.939-26.624-46.762-20.366-65.526
			c5.641-16.914,21.104-30.642,37.487-45.184c13.937-12.366,28.344-25.157,36.161-40.669l2.033-4.032l2.494,3.765
			c14.582,22.024,19.037,43.395,12.227,58.632c-1.186,2.655-0.395,5.749,1.925,7.532c0.938,0.706,2.06,1.131,3.259,1.232
			c1.643,0.139,3.235-0.351,4.491-1.378c26.826-21.994,57.24-46.925,50.588-125.979l-0.626-7.491L341.32,110
			c27.07,28.782,43.569,61.617,47.711,94.95c4.194,33.733-4.596,65.578-25.4,92.088c-1.441,1.84-1.742,4.311-0.769,6.457
			c0.932,2.047,2.912,3.434,5.182,3.629l0.181,0.012c14.35,0.74,38.284-9.332,56.925-33.196l4.252-5.44l0.428,6.894
			c0.802,12.996,1.176,45.79-12.651,69.567c-8.346,14.347-38.432,33.293-53.318,35.813c-1.65,0.277-3.087,1.18-4.059,2.541
			c-0.965,1.359-1.345,3.014-1.065,4.665c0.478,2.806,2.799,4.937,5.646,5.179c0.523,0.045,1.049,0.021,1.572-0.064
			c17.855-3.018,51.786-24.26,62.019-41.846C448.141,316.576,443.329,263.369,438.098,248.994z"/>
		<path fill="#BBBBBB" d="M355.239,204.786c-1.047-1.098-2.47-1.783-4.006-1.925c-0.934-0.088-1.876,0.034-2.732,0.351
			c-2.364,0.876-3.969,3.075-4.07,5.601c-0.863,21.131-16.058,40.171-25.036,49.642c-12.584,13.266-27.304,22.971-35.001,23.078
			c-0.439,0.006-0.904-0.004-1.35-0.031c-0.167-0.012-0.332-0.024-0.494-0.039c-11.314-1.057-19.441-13.469-20.693-31.631
			c-0.186-2.59-1.812-4.699-4.246-5.495c-0.452-0.15-0.914-0.248-1.391-0.29c-2.027-0.192-4.025,0.606-5.337,2.134
			c-23.323,27.082-31.14,45.521-15.829,83.213c0.881,2.172,2.873,3.654,5.208,3.875l0.183,0.014c0.94,0.061,1.867-0.094,2.75-0.451
			c3.188-1.293,4.731-4.947,3.439-8.141c-9.711-23.895-9.165-38.381,2.071-55.357l2.825-4.27l1.811,4.783
			c5.389,14.236,16.262,23.314,29.023,24.132c0.744,0.048,1.484,0.067,2.207,0.058c14.17-0.199,35.434-16.436,48.457-36.984
			l9.677-9.889l2.842-1.699c0.71,2.945-3.299,13.617-6.868,23.144c-1.647,4.378-3.512,9.347-5.341,14.55
			c-4.474,12.688-10.165,26.03-12.926,32.326l7.144,14.623c0.461-0.959,0.974-2.068,1.556-3.387c0.508-1.162,1.05-2.393,1.633-3.692
			C338.018,306.678,373.386,224.158,355.239,204.786z"/>
	</g>
	<g>
		<g id="Question_Bubble">
			<g>
				<path fill="#BBBBBB" d="M92.909,569.902c-1.436-0.113-2.833-0.559-3.965-1.293c-1.729-1.125-2.603-2.777-2.34-4.4l9.414-59.998
					c0.421-2.686,3.758-4.488,7.454-4.047c3.702,0.443,6.35,2.969,5.93,5.658l-8.272,52.703l70.125-12.305
					c3.59-0.604,7.314,1.023,8.346,3.658c1.033,2.646-1.023,5.299-4.59,5.93l-79.845,13.982
					C94.423,569.931,93.659,569.96,92.909,569.902z"/>
				<path fill="#BBBBBB" d="M217.795,564.742c-16.096-1.258-31.823-4.393-46.974-9.352l4.974-8.947
					c20.034,6.557,41.161,9.592,62.822,9.014c36.698-0.979,69.934-12.377,93.628-32.078c23.677-19.701,34.973-45.363,31.792-72.266
					c-6.537-55.501-73.444-99.039-149.159-97.025c-36.665,0.965-69.915,12.355-93.604,32.072
					c-23.692,19.711-34.989,45.369-31.807,72.25c1.807,15.475,8.223,30.197,19.047,43.773l-11.551,4.641
					c-11.895-14.91-18.926-31.074-20.918-48.059c-3.48-29.506,8.915-57.676,34.926-79.313
					c26.008-21.645,62.501-34.148,102.748-35.217c83.153-2.145,156.564,45.59,163.733,106.512
					c3.491,29.521-8.891,57.697-34.893,79.334c-26,21.629-62.509,34.135-102.762,35.207
					C232.384,565.492,225.058,565.31,217.795,564.742z"/>
			</g>
			<g>
				<g>
					<path fill="#BBBBBB" d="M208.683,425.714"/>
					<path fill="#BBBBBB" d="M182.752,425.91"/>
					<path fill="#BBBBBB" d="M195.909,436.535c-0.037-0.002-0.073-0.002-0.123-0.002c-9.837-0.119-16.912-4.104-18.037-10.15
						c-0.381-2.016,1.56-3.865,4.328-4.129c2.764-0.326,5.32,1.16,5.693,3.174c0.602,3.18,5.347,3.705,8.131,3.74
						c0.035,0,0.084,0.002,0.129,0.002c6.751,0.061,6.962-1.057,7.559-4.01c0.407-2.002,2.971-3.398,5.742-3.088
						c2.764,0.309,4.682,2.189,4.281,4.197C212.126,433.57,206.832,436.634,195.909,436.535z"/>
				</g>
				<g>
					<path fill="#BBBBBB" d="M233.521,480.564"/>
					<path fill="#BBBBBB" d="M207.784,480.326"/>
					<path fill="#BBBBBB" d="M220.528,491.046c-10.03-0.094-17.846-4.816-17.791-10.76c0.019-2.031,2.303-3.662,5.092-3.637
						c2.797,0.025,5.043,1.697,5.025,3.729c-0.01,1.531,3.293,3.26,7.744,3.303c4.448,0.039,7.778-1.635,7.789-3.156
						c0.019-2.033,2.305-3.662,5.1-3.639c2.793,0.025,5.046,1.697,5.027,3.73C238.458,486.552,230.55,491.14,220.528,491.046z"/>
				</g>
				<path fill="#BBBBBB" d="M233.401,484.248L233.401,484.248c-2.801-0.027-5.043-1.699-5.022-3.736
					c0.054-5.188,0.241-14.203,0.916-16.25c0.536-1.672,2.04-2.508,6.515-4.979c9.418-5.199,31.438-17.381,31.578-32.775
					c0.176-19.209-13.136-29.074-39.576-29.318c-14.551-0.133-25.819,2.619-32.59,7.969c-6.049,4.768-8.556,11.582-7.445,20.25
					c0.261,2.023-1.791,3.811-4.569,3.982c-2.752,0.191-5.247-1.318-5.502-3.352c-1.386-10.82,2.009-19.537,10.056-25.898
					c8.768-6.91,22.635-10.48,40.121-10.319c31.758,0.296,49.848,13.696,49.635,36.778c-0.175,19.004-24.953,32.715-35.537,38.566
					c-1.238,0.678-2.254,1.217-2.965,1.643c-0.25,2.352-0.47,8.551-0.52,13.807C238.476,482.642,236.199,484.271,233.401,484.248z
					 M202.783,480.371c0,0-0.252-11.859-0.179-19.463c0.053-5.609,7.625-9.447,16.385-13.881
					c10.594-5.367,22.603-11.459,22.686-20.758c0.072-7.891-3.21-10.334-14.044-10.434c-8.894-0.084-13.265,1.512-14.041,10.803
					c-0.167,2.027-2.467,3.6-5.358,3.428c-2.784-0.135-4.903-1.893-4.742-3.922c1.039-12.193,8.721-17.816,24.212-17.674
					c16.313,0.152,24.198,6.004,24.088,17.895c-0.12,13.092-15.642,20.963-26.989,26.711c-5.089,2.58-12.066,6.125-12.078,7.928
					c-0.072,7.531,0.176,19.283,0.178,19.297L202.783,480.371z"/>
			</g>
			<path fill="#BBBBBB" d="M220.39,527.884c-10.238-0.094-18.52-6.234-18.453-13.709c0.07-7.463,8.461-13.445,18.701-13.354
				c10.245,0.096,18.521,6.234,18.45,13.697C239.022,521.99,230.631,527.978,220.39,527.884z M220.573,508.189
				c-4.657-0.043-8.482,2.68-8.514,6.078c-0.033,3.406,3.733,6.209,8.398,6.252c4.671,0.045,8.486-2.678,8.52-6.092
				C229.003,511.021,225.241,508.232,220.573,508.189z"/>
		</g>
	</g>
</g>
</svg>
