<?xml version="1.0" encoding="utf-8"?>
<!-- Generator: Adobe Illustrator 15.0.0, SVG Export Plug-In . SVG Version: 6.00 Build 0)  -->
<!DOCTYPE svg PUBLIC "-//W3C//DTD SVG 1.1//EN" "http://www.w3.org/Graphics/SVG/1.1/DTD/svg11.dtd">
<svg version="1.1" id="Capa_1" xmlns="http://www.w3.org/2000/svg" xmlns:xlink="http://www.w3.org/1999/xlink" x="0px" y="0px"
	 width="396.491px" height="303.76px" viewBox="0 -0.001 396.491 303.76" enable-background="new 0 -0.001 396.491 303.76"
	 xml:space="preserve">
<g>
	<path fill="#76DDC9" d="M304.42,284.533H261.2c-1.559,0-2.834-1.272-2.834-2.834v-10.521c0-1.56-1.273-2.834-2.832-2.834h-60.476
		c-1.56,0-2.835,1.274-2.835,2.834v10.521c0,1.562-1.275,2.834-2.835,2.834h-32.491c-1.56,0-2.835,1.273-2.835,2.834v12.17
		c0,1.561,1.275,2.834,2.835,2.834h147.521c1.56,0,2.834-1.273,2.834-2.834v-12.17C307.254,285.811,305.98,284.533,304.42,284.533z"
		/>
	<g>
		<path fill="#76DDC9" d="M377.034-0.001H68.633c-10.73,0-19.459,8.73-19.459,19.462c0,0,0,37.109,0,50.762
			c0,6.711-0.498,7.66,4.004,7.66c2.391,0,5.039,0,7.72,0c3.778,0,3.003-0.949,3.003-7.785c0-13.621,0-50.637,0-50.637
			c0-2.564,2.168-4.732,4.732-4.732h308.401c2.563,0,4.729,2.168,4.729,4.732v190h-219.87c0,0-7.749-0.016-7.749,10.006
			c0,5.941,0,17.822,0,23.766c0,10.007,8,10.007,8,10.007H377.03c10.729,0,19.461-8.729,19.461-19.46V19.461
			C396.495,8.73,387.762-0.001,377.034-0.001z M222.833,236.436c-4.847,0-8.771-3.926-8.771-8.768s3.926-8.771,8.771-8.771
			c4.84,0,8.77,3.93,8.77,8.771S227.672,236.436,222.833,236.436z"/>
		<path fill="#76DDC9" d="M124.125,95.265H12.56C5.632,95.265,0,100.897,0,107.824v183.373c0,6.926,5.632,12.562,12.559,12.562
			h111.566c6.923,0,12.559-5.636,12.559-12.562V107.824C136.685,100.897,131.048,95.265,124.125,95.265z M54.581,108.074h27.523
			c1.313,0,2.38,1.064,2.38,2.381c0,1.314-1.066,2.379-2.38,2.379H54.581c-1.315,0-2.379-1.064-2.379-2.379
			C52.201,109.139,53.266,108.074,54.581,108.074z M68.175,294.936c-3.59,0-6.5-2.91-6.5-6.5s2.91-6.5,6.5-6.5
			c3.59,0,6.5,2.91,6.5,6.5S71.766,294.936,68.175,294.936z M125.894,275.832c0,1.676-1.342,3.047-2.98,3.047H13.774
			c-1.639,0-2.98-1.371-2.98-3.047V123.457c0-1.677,1.342-3.047,2.98-3.047h109.139c1.639,0,2.98,1.371,2.98,3.047L125.894,275.832
			L125.894,275.832z"/>
	</g>
</g>
</svg>
