<?xml version="1.0" encoding="utf-8"?>
<!-- Generator: Adobe Illustrator 15.0.0, SVG Export Plug-In . SVG Version: 6.00 Build 0)  -->
<!DOCTYPE svg PUBLIC "-//W3C//DTD SVG 1.1//EN" "http://www.w3.org/Graphics/SVG/1.1/DTD/svg11.dtd">
<svg version="1.1" id="Capa_1" xmlns="http://www.w3.org/2000/svg" xmlns:xlink="http://www.w3.org/1999/xlink" x="0px" y="0px"
	 width="367.197px" height="487.878px" viewBox="75.471 82.052 367.197 487.878"
	 enable-background="new 75.471 82.052 367.197 487.878" xml:space="preserve">
<g>
	<g>
		<path fill="#525252" d="M438.098,248.993c-0.837-2.277-2.938-3.882-5.364-4.087l-0.127-0.008c-2.474-0.154-4.81,1.18-5.95,3.398
			c-11.871,23.194-26.497,34.637-36.686,40.152l-7.662,4.154l4.104-7.691c33.787-63.253,11.787-144.18-54.745-201.378
			c-0.968-0.828-2.231-1.346-3.554-1.458c-1.264-0.106-2.496,0.15-3.56,0.742c-2.279,1.273-3.535,3.858-3.13,6.434
			c11.761,74.717-5.063,103.361-24.994,123.188l-4.045,4.024l-0.414-5.692c-1.39-19.061-11.954-41.543-28.271-60.141
			c-1.542-1.746-4.177-2.521-6.449-1.868c-2.306,0.672-4.045,2.649-4.425,5.038c-2.984,19.12-19.745,34.003-37.486,49.758
			c-16.53,14.673-33.621,29.846-40.628,49.973c-8.014,23.025-0.841,48.461,21.92,77.775c0.639,0.813,1.437,1.438,2.375,1.859
			c2.041,0.913,4.628,0.603,6.404-0.77c2.711-2.109,3.204-6.043,1.093-8.773c-20.152-25.939-26.624-46.761-20.366-65.526
			c5.641-16.914,21.104-30.642,37.487-45.184c13.937-12.366,28.344-25.157,36.161-40.669l2.033-4.032l2.495,3.765
			c14.581,22.024,19.036,43.395,12.226,58.632c-1.186,2.655-0.395,5.749,1.925,7.532c0.938,0.706,2.06,1.131,3.259,1.232
			c1.642,0.139,3.235-0.351,4.491-1.378c26.826-21.994,57.24-46.925,50.588-125.979l-0.626-7.491L341.32,110
			c27.071,28.782,43.57,61.617,47.711,94.95c4.195,33.733-4.595,65.578-25.4,92.089c-1.442,1.839-1.742,4.31-0.769,6.457
			c0.932,2.046,2.912,3.433,5.182,3.628l0.181,0.012c14.349,0.74,38.284-9.332,56.924-33.196l4.252-5.441l0.428,6.894
			c0.802,12.996,1.176,45.79-12.651,69.567c-8.346,14.347-38.432,33.293-53.319,35.813c-1.65,0.277-3.087,1.18-4.058,2.541
			c-0.965,1.36-1.345,3.014-1.066,4.665c0.478,2.806,2.799,4.936,5.646,5.178c0.523,0.045,1.049,0.021,1.572-0.064
			c17.856-3.017,51.786-24.259,62.019-41.846C448.141,316.576,443.329,263.368,438.098,248.993z"/>
		<path fill="#525252" d="M355.239,204.786c-1.047-1.098-2.469-1.783-4.006-1.925c-0.933-0.088-1.876,0.034-2.732,0.351
			c-2.364,0.876-3.969,3.075-4.07,5.601c-0.864,21.131-16.058,40.171-25.036,49.641c-12.584,13.266-27.304,22.972-35.001,23.078
			c-0.44,0.007-0.905-0.003-1.35-0.031c-0.167-0.011-0.332-0.024-0.494-0.039c-11.315-1.056-19.442-13.469-20.693-31.63
			c-0.186-2.59-1.812-4.699-4.247-5.495c-0.452-0.15-0.914-0.248-1.39-0.29c-2.027-0.192-4.025,0.606-5.337,2.134
			c-23.324,27.082-31.14,45.521-15.829,83.213c0.881,2.172,2.873,3.655,5.208,3.875l0.182,0.014c0.941,0.06,1.867-0.094,2.75-0.451
			c3.188-1.294,4.732-4.947,3.44-8.141c-9.711-23.894-9.165-38.381,2.071-55.358l2.826-4.269l1.81,4.783
			c5.388,14.237,16.261,23.314,29.023,24.132c0.745,0.048,1.484,0.068,2.207,0.058c14.17-0.2,35.434-16.436,48.457-36.984
			l9.677-9.889l2.842-1.699c0.71,2.944-3.299,13.616-6.868,23.143c-1.648,4.378-3.512,9.346-5.341,14.55
			c-4.474,12.688-10.165,26.03-12.926,32.326l7.144,14.623c0.461-0.959,0.973-2.069,1.555-3.386c0.508-1.163,1.05-2.393,1.633-3.693
			C338.018,306.678,373.386,224.158,355.239,204.786z"/>
	</g>
	<g>
		<g id="Question_Bubble">
			<g>
				<path fill="#525252" d="M92.909,569.901c-1.436-0.113-2.833-0.558-3.965-1.292c-1.729-1.125-2.603-2.777-2.34-4.401
					l9.414-59.997c0.421-2.687,3.758-4.488,7.454-4.047c3.702,0.443,6.35,2.968,5.93,5.658l-8.272,52.703l70.125-12.305
					c3.59-0.604,7.314,1.023,8.346,3.658c1.033,2.646-1.023,5.299-4.59,5.93l-79.845,13.983
					C94.423,569.932,93.659,569.96,92.909,569.901z"/>
				<path fill="#525252" d="M217.795,564.741c-16.096-1.258-31.823-4.391-46.974-9.35l4.974-8.948
					c20.034,6.556,41.161,9.592,62.822,9.014c36.699-0.979,69.934-12.377,93.628-32.078c23.677-19.702,34.973-45.363,31.792-72.267
					c-6.537-55.5-73.444-99.039-149.159-97.025c-36.665,0.965-69.915,12.356-93.604,32.073
					c-23.692,19.71-34.989,45.368-31.807,72.249c1.807,15.475,8.223,30.198,19.047,43.774l-11.551,4.64
					c-11.895-14.909-18.926-31.074-20.918-48.057c-3.48-29.507,8.915-57.677,34.926-79.314
					c26.008-21.644,62.501-34.148,102.748-35.216c83.153-2.145,156.564,45.59,163.733,106.511
					c3.491,29.523-8.89,57.698-34.892,79.335c-26,21.629-62.509,34.134-102.762,35.207
					C232.384,565.492,225.057,565.31,217.795,564.741z"/>
			</g>
			<g>
				<g>
					<path fill="#525252" d="M208.682,425.715"/>
					<path fill="#525252" d="M182.752,425.909"/>
					<path fill="#525252" d="M195.909,436.535c-0.037-0.002-0.073-0.002-0.123-0.003c-9.837-0.118-16.912-4.102-18.037-10.15
						c-0.381-2.016,1.56-3.864,4.328-4.129c2.764-0.326,5.321,1.16,5.694,3.174c0.601,3.18,5.346,3.706,8.131,3.74
						c0.034,0,0.083,0.002,0.128,0.002c6.751,0.06,6.962-1.057,7.559-4.009c0.407-2.002,2.971-3.398,5.742-3.088
						c2.763,0.308,4.682,2.19,4.282,4.198C212.126,433.569,206.832,436.635,195.909,436.535z"/>
				</g>
				<g>
					<path fill="#525252" d="M233.521,480.564"/>
					<path fill="#525252" d="M207.784,480.325"/>
					<path fill="#525252" d="M220.529,491.046c-10.031-0.094-17.846-4.816-17.791-10.759c0.018-2.032,2.302-3.662,5.091-3.637
						c2.797,0.025,5.043,1.698,5.026,3.729c-0.01,1.531,3.292,3.26,7.744,3.303c4.448,0.039,7.778-1.636,7.789-3.158
						c0.018-2.032,2.304-3.661,5.099-3.637c2.793,0.024,5.046,1.696,5.028,3.729C238.458,486.552,230.55,491.14,220.529,491.046z"/>
				</g>
				<path fill="#525252" d="M233.401,484.247L233.401,484.247c-2.801-0.027-5.043-1.699-5.022-3.736
					c0.053-5.187,0.241-14.203,0.916-16.249c0.536-1.673,2.04-2.508,6.515-4.98c9.417-5.198,31.437-17.38,31.578-32.774
					c0.176-19.209-13.136-29.075-39.576-29.319c-14.551-0.133-25.82,2.619-32.591,7.968c-6.048,4.769-8.555,11.582-7.444,20.25
					c0.26,2.024-1.791,3.812-4.57,3.984c-2.752,0.191-5.247-1.32-5.502-3.353c-1.386-10.82,2.009-19.537,10.056-25.897
					c8.768-6.911,22.634-10.481,40.121-10.32c31.757,0.296,49.848,13.697,49.635,36.779c-0.175,19.003-24.954,32.714-35.537,38.566
					c-1.239,0.678-2.255,1.216-2.966,1.642c-0.249,2.351-0.469,8.551-0.519,13.806C238.475,482.643,236.199,484.271,233.401,484.247
					z M202.783,480.37c0,0-0.252-11.858-0.178-19.463c0.052-5.609,7.625-9.447,16.384-13.88
					c10.594-5.368,22.603-11.46,22.686-20.757c0.072-7.891-3.21-10.334-14.044-10.435c-8.893-0.083-13.265,1.513-14.041,10.804
					c-0.167,2.027-2.467,3.599-5.359,3.427c-2.784-0.134-4.903-1.892-4.742-3.922c1.04-12.194,8.721-17.816,24.212-17.674
					c16.314,0.152,24.199,6.005,24.088,17.894c-0.12,13.093-15.641,20.964-26.989,26.711c-5.089,2.58-12.067,6.125-12.079,7.929
					c-0.072,7.53,0.177,19.283,0.179,19.296L202.783,480.37z"/>
			</g>
			<path fill="#525252" d="M220.389,527.885c-10.238-0.095-18.519-6.236-18.452-13.709c0.07-7.463,8.46-13.447,18.7-13.354
				c10.246,0.095,18.521,6.234,18.451,13.697C239.022,521.99,230.631,527.979,220.389,527.885z M220.573,508.189
				c-4.657-0.043-8.482,2.68-8.513,6.079c-0.034,3.406,3.733,6.208,8.398,6.252c4.671,0.043,8.486-2.678,8.519-6.093
				C229.003,511.021,225.241,508.231,220.573,508.189z"/>
		</g>
	</g>
</g>
</svg>
