<?xml version="1.0" encoding="utf-8"?>
<!-- Generator: Adobe Illustrator 15.0.0, SVG Export Plug-In . SVG Version: 6.00 Build 0)  -->
<!DOCTYPE svg PUBLIC "-//W3C//DTD SVG 1.1//EN" "http://www.w3.org/Graphics/SVG/1.1/DTD/svg11.dtd">
<svg version="1.1" id="Capa_1" xmlns="http://www.w3.org/2000/svg" xmlns:xlink="http://www.w3.org/1999/xlink" x="0px" y="0px"
	 width="510.655px" height="653.334px" viewBox="0 2.334 510.655 653.334" enable-background="new 0 2.334 510.655 653.334"
	 xml:space="preserve">
<g>
	<path fill="#2B977E" d="M509.583,107.068c-0.363-1.39-1.509-2.456-2.928-2.716l-0.074-0.012c-1.449-0.232-2.901,0.42-3.7,1.662
		c-8.324,12.989-17.601,18.896-23.92,21.563l-4.755,2.009l2.86-4.297C500.601,89.933,492.27,40.979,456.333,3.46
		c-0.523-0.543-1.237-0.921-2.011-1.063c-0.739-0.135-1.479-0.054-2.138,0.234c-1.417,0.62-2.306,2.071-2.214,3.612
		c2.652,44.708-8.904,60.626-21.784,71.17l-2.616,2.14l0.081-3.378c0.274-11.313-4.666-25.168-13.216-37.063
		c-0.809-1.118-2.318-1.725-3.695-1.471c-1.397,0.264-2.535,1.33-2.894,2.716c-2.854,11.097-13.585,18.909-24.945,27.178
		c-10.581,7.701-21.523,15.664-26.804,27.125c-6.041,13.111-3.272,28.513,8.465,47.092c0.331,0.516,0.764,0.93,1.293,1.232
		c1.15,0.655,2.693,0.62,3.818-0.087c1.72-1.088,2.235-3.378,1.146-5.108c-10.389-16.441-13.01-29.083-8.25-39.784
		c4.294-9.645,14.194-16.85,24.68-24.482c8.923-6.49,18.147-13.203,23.641-21.898l1.428-2.26l1.255,2.362
		c7.333,13.815,8.736,26.665,3.848,35.255c-0.852,1.497-0.563,3.365,0.704,4.549c0.511,0.47,1.148,0.785,1.85,0.913
		c0.958,0.176,1.925-0.021,2.723-0.555c17.072-11.426,36.422-24.377,37.03-71.349l0.059-4.45l2.719,3.521
		c14.307,18.513,22.149,38.809,22.681,58.691c0.541,20.121-6.462,38.385-20.244,52.818c-0.956,1.001-1.273,2.44-0.823,3.761
		c0.433,1.259,1.521,2.19,2.847,2.435l0.104,0.017c8.414,1.258,23.098-3.307,35.45-16.304l2.818-2.963l-0.143,4.087
		c-0.27,7.705-1.926,27.053-11.438,40.275c-5.74,7.977-24.558,17.42-33.475,18.053c-0.988,0.069-1.887,0.518-2.537,1.265
		c-0.647,0.746-0.966,1.699-0.894,2.688c0.12,1.681,1.366,3.069,3.031,3.375c0.304,0.056,0.616,0.073,0.93,0.052
		c10.696-0.755,31.909-11.331,38.946-21.11C511.633,147.473,511.843,115.84,509.583,107.068z"/>
	<path fill="#2B977E" d="M463.28,76.27c-0.551-0.707-1.35-1.192-2.25-1.364c-0.544-0.105-1.107-0.087-1.631,0.051
		c-1.443,0.381-2.512,1.585-2.717,3.068c-1.72,12.404-11.765,22.755-17.599,27.822c-8.176,7.098-17.406,11.975-21.949,11.597
		c-0.259-0.021-0.533-0.054-0.792-0.096c-0.098-0.016-0.195-0.033-0.29-0.051c-6.61-1.27-10.687-9.051-10.384-19.826
		c0.039-1.537-0.799-2.873-2.188-3.482c-0.258-0.114-0.526-0.198-0.802-0.25c-1.185-0.229-2.406,0.127-3.268,0.952
		c-15.297,14.625-20.959,25.045-14.095,48.135c0.395,1.331,1.486,2.319,2.849,2.582l0.108,0.019
		c0.549,0.089,1.104,0.052,1.645-0.108c1.954-0.58,3.073-2.645,2.494-4.601c-4.354-14.638-3.202-23.145,4.392-32.507l1.909-2.354
		l0.794,2.923c2.359,8.699,8.247,14.671,15.722,15.884c0.436,0.071,0.871,0.125,1.297,0.16c8.363,0.694,21.824-7.657,30.675-19.021
		l6.271-5.274l1.771-0.839c0.249,1.776-2.723,7.836-5.374,13.246c-1.22,2.486-2.603,5.307-3.98,8.269
		c-3.363,7.222-7.482,14.759-9.468,18.311l3.372,9.027c0.327-0.539,0.691-1.164,1.109-1.906c0.368-0.657,0.757-1.351,1.174-2.083
		C447.298,135.334,472.866,88.726,463.28,76.27z"/>
</g>
<g>
	<path fill="#2B977E" d="M125.724,393.434v-42.553c0-4.406-3.572-7.979-7.979-7.979c-4.406,0-7.979,3.573-7.979,7.979v42.553
		c0,4.406,3.572,7.979,7.979,7.979C122.151,401.412,125.724,397.84,125.724,393.434z"/>
	<path fill="#2B977E" d="M157.639,393.434v-42.553c0-4.406-3.573-7.979-7.979-7.979s-7.979,3.573-7.979,7.979v42.553
		c0,4.406,3.572,7.979,7.979,7.979S157.639,397.84,157.639,393.434z"/>
	<path fill="#2B977E" d="M189.553,393.434v-42.553c0-4.406-3.57-7.979-7.979-7.979c-4.407,0-7.979,3.573-7.979,7.979v42.553
		c0,4.406,3.571,7.979,7.979,7.979C185.982,401.412,189.553,397.84,189.553,393.434z"/>
	<path fill="#2B977E" d="M221.469,393.434v-42.553c0-4.406-3.572-7.979-7.979-7.979c-4.408,0-7.979,3.573-7.979,7.979v42.553
		c0,4.406,3.571,7.979,7.979,7.979C217.896,401.412,221.469,397.84,221.469,393.434z"/>
	<path fill="#2B977E" d="M95.937,275.078v1.335c0,10.265,8.352,18.617,18.616,18.617h102.129c10.264,0,18.616-8.352,18.616-18.617
		v-1.335c18.188-3.707,31.916-19.825,31.916-39.09v-72.341c0-4.406-3.572-7.979-7.979-7.979c-4.408,0-7.979,3.572-7.979,7.979
		v40.447c-4.643-3.492-10.066-5.997-15.959-7.198v-1.334c0-10.265-8.352-18.617-18.616-18.617H114.553
		c-10.265,0-18.616,8.353-18.616,18.617v1.335c-5.893,1.201-11.316,3.706-15.958,7.198v-40.448c0-4.406-3.572-7.979-7.979-7.979
		s-7.979,3.572-7.979,7.979v72.341C64.021,255.253,77.749,271.371,95.937,275.078L95.937,275.078z M251.256,235.987
		c0,10.401-6.672,19.27-15.959,22.563v-45.127C244.584,216.717,251.256,225.586,251.256,235.987z M111.894,195.562
		c0-1.441,1.218-2.66,2.659-2.66h102.129c1.441,0,2.659,1.218,2.659,2.66v80.851c0,1.441-1.218,2.66-2.659,2.66H114.553
		c-1.441,0-2.659-1.218-2.659-2.66V195.562z M95.937,213.423v45.127c-9.286-3.293-15.958-12.162-15.958-22.563
		C79.979,225.585,86.65,216.717,95.937,213.423z"/>
	<path fill="#2B977E" d="M331.235,484.924V361.519c0-21.998-17.896-39.893-39.895-39.893h-13.83c-4.406,0-7.979,3.572-7.979,7.978
		v2.66h-12.957v-2.66c0-10.264-8.352-18.616-18.617-18.616H93.276c-10.265,0-18.617,8.352-18.617,18.616v2.66H61.702v-2.66
		c0-4.406-3.572-7.978-7.979-7.978h-13.83C17.896,321.625,0,339.521,0,361.519v123.405c0,3.098,1.771,5.777,4.35,7.1
		C1.591,496.642,0,502.035,0,507.795v11.729c0,4.406,3.572,7.979,7.979,7.979s7.979-3.572,7.979-7.979v-11.729
		c0-8.212,6.682-14.893,14.894-14.893c8.213,0,14.894,6.681,14.894,14.893v11.729c0,4.406,3.573,7.979,7.979,7.979
		s7.979-3.572,7.979-7.979v-11.729c0-5.76-1.591-11.153-4.351-15.771c2.581-1.321,4.351-4.001,4.351-7.1V348.222h12.957v62.233
		c0,4.406,3.572,7.979,7.979,7.979c4.406,0,7.979-3.572,7.979-7.979v-80.852c0-1.441,1.218-2.659,2.659-2.659h144.681
		c1.441,0,2.66,1.218,2.66,2.659v144.682c0,1.441-1.219,2.659-2.66,2.659H93.276c-1.441,0-2.659-1.218-2.659-2.659V442.37
		c0-4.406-3.572-7.979-7.979-7.979c-4.407,0-7.979,3.572-7.979,7.979v31.915c0,7.407,4.36,13.8,10.639,16.795v118.537
		c-6.278,2.995-10.639,9.387-10.639,16.794v21.277c0,4.406,3.572,7.979,7.979,7.979h67.021c4.406,0,7.979-3.572,7.979-7.979v-21.277
		c0-7.407-4.36-13.8-10.639-16.794v-92.779c0-4.406-3.572-7.979-7.979-7.979s-7.979,3.572-7.979,7.979v25.532h-29.788v-49.468
		h128.724v49.468h-29.788v-25.532c0-4.406-3.57-7.979-7.979-7.979c-4.407,0-7.979,3.572-7.979,7.979v92.78
		c-6.279,2.995-10.639,9.387-10.639,16.794v21.277c0,4.406,3.571,7.979,7.979,7.979h67.022c4.406,0,7.979-3.572,7.979-7.979v-21.277
		c0-7.407-4.359-13.8-10.639-16.794V491.08c6.279-2.996,10.639-9.388,10.639-16.795V348.222h12.957v136.702
		c0,3.098,1.77,5.778,4.35,7.1c-2.76,4.619-4.35,10.013-4.35,15.771v11.729c0,4.406,3.572,7.979,7.979,7.979
		c4.408,0,7.979-3.572,7.979-7.979v-11.729c0-8.212,6.682-14.893,14.895-14.893s14.893,6.681,14.893,14.893v11.729
		c0,4.406,3.572,7.979,7.98,7.979c4.406,0,7.979-3.572,7.979-7.979v-11.729c0-5.759-1.592-11.152-4.352-15.771
		C329.465,490.702,331.235,488.022,331.235,484.924L331.235,484.924z M15.957,361.519c0-13.198,10.737-23.936,23.937-23.936h5.851
		v139.361H15.957V361.519z M141.681,639.711H90.617v-13.298c0-1.442,1.218-2.66,2.659-2.66h45.745c1.441,0,2.659,1.218,2.659,2.66
		V639.711z M131.043,558.327v49.469h-29.788v-49.469H131.043z M229.979,558.327v49.469h-29.788v-49.469H229.979z M240.618,639.711
		h-51.065v-13.298c0-1.442,1.219-2.66,2.66-2.66h45.745c1.441,0,2.66,1.218,2.66,2.66V639.711z M285.489,337.583h5.852
		c13.197,0,23.936,10.737,23.936,23.936v115.426h-29.787V337.583z"/>
</g>
<g>
	<g id="Question_Bubble">
		<g>
			<path fill="#2B977E" d="M287.77,276.428c-0.84-0.148-1.637-0.49-2.263-0.988c-0.955-0.762-1.375-1.785-1.127-2.728l8.985-34.82
				c0.402-1.559,2.471-2.43,4.625-1.958c2.155,0.473,3.571,2.113,3.169,3.674l-7.893,30.587l42.035-3.236
				c2.149-0.151,4.251,1.022,4.709,2.634c0.457,1.618-0.907,3.064-3.045,3.231l-47.858,3.669
				C288.66,276.533,288.208,276.506,287.77,276.428z"/>
			<path fill="#2B977E" d="M361.667,280.539c-9.414-1.663-18.503-4.41-27.148-8.2l3.444-4.989c11.431,5.011,23.709,8.01,36.507,8.91
				c21.683,1.524,41.924-3.29,57.016-13.544c15.082-10.256,23.208-24.732,22.874-40.77c-0.672-33.083-37.612-62.574-82.348-65.723
				c-21.665-1.531-41.913,3.279-57.002,13.542c-15.092,10.26-23.22,24.735-22.884,40.759c0.179,9.223,3.117,18.268,8.719,26.889
				l-7.074,2.073c-6.156-9.468-9.374-19.397-9.576-29.52c-0.361-17.589,8.556-33.481,25.125-44.744
				c16.568-11.266,38.791-16.546,62.572-14.871c49.129,3.498,89.661,35.834,90.397,72.148c0.367,17.599-8.543,33.495-25.105,44.758
				c-16.564,11.258-38.795,16.537-62.581,14.865C370.222,281.817,365.913,281.29,361.667,280.539z"/>
		</g>
		<g>
			<g>
				<path fill="#2B977E" d="M364.257,198.082"/>
				<path fill="#2B977E" d="M348.965,196.712"/>
				<path fill="#2B977E" d="M356.109,203.727c-0.021-0.003-0.044-0.005-0.072-0.008c-5.792-0.633-9.733-3.386-10.05-7.015
					c-0.108-1.21,1.141-2.188,2.787-2.186c1.65-0.033,3.072,0.989,3.175,2.197c0.171,1.908,2.939,2.49,4.577,2.67
					c0.021,0.002,0.049,0.005,0.078,0.008c3.973,0.422,4.163-0.224,4.683-1.929c0.356-1.157,1.944-1.833,3.561-1.492
					c1.61,0.34,2.631,1.559,2.282,2.72C365.838,202.908,362.54,204.412,356.109,203.727z"/>
			</g>
			<g>
				<path fill="#2B977E" d="M375.756,231.83"/>
				<path fill="#2B977E" d="M360.602,230.215"/>
				<path fill="#2B977E" d="M367.497,237.263c-5.906-0.629-10.241-3.86-9.869-7.359c0.127-1.197,1.567-2.027,3.21-1.852
					c1.646,0.175,2.875,1.29,2.748,2.485c-0.095,0.902,1.753,2.11,4.374,2.39c2.619,0.278,4.678-0.519,4.772-1.415
					c0.127-1.197,1.569-2.026,3.212-1.852c1.646,0.175,2.877,1.289,2.751,2.486C378.322,235.641,373.398,237.892,367.497,237.263z"
					/>
			</g>
			<path fill="#2B977E" d="M375.475,233.993L375.475,233.993c-1.651-0.176-2.876-1.29-2.746-2.489
				c0.327-3.054,0.955-8.357,1.468-9.524c0.412-0.955,1.346-1.361,4.125-2.562c5.847-2.525,19.523-8.443,20.489-17.508
				c1.202-11.31-6.079-17.887-21.648-19.545c-8.568-0.912-15.366,0.065-19.664,2.83c-3.838,2.463-5.704,6.335-5.547,11.507
				c0.037,1.208-1.273,2.144-2.921,2.087c-1.633-0.045-3.016-1.079-3.051-2.291c-0.198-6.456,2.303-11.399,7.411-14.687
				c5.561-3.571,13.939-4.881,24.236-3.784c18.698,1.992,28.593,10.926,27.146,24.517c-1.192,11.19-16.581,17.851-23.153,20.694
				c-0.767,0.329-1.397,0.588-1.841,0.798c-0.282,1.371-0.765,5.013-1.095,8.107C378.557,233.338,377.12,234.168,375.475,233.993z
				 M357.65,229.955c0,0,0.532-7.003,1.009-11.48c0.353-3.303,5.035-5.131,10.451-7.242c6.552-2.557,13.977-5.46,14.56-10.934
				c0.494-4.646-1.301-6.274-7.68-6.954c-5.236-0.558-7.905,0.132-8.893,5.563c-0.215,1.186-1.659,1.979-3.356,1.713
				c-1.632-0.238-2.78-1.396-2.569-2.583c1.309-7.127,6.159-10.001,15.28-9.029c9.609,1.023,13.919,4.924,13.173,11.924
				c-0.821,7.709-10.419,11.46-17.436,14.197c-3.147,1.229-7.46,2.919-7.572,3.981c-0.473,4.434-1,11.375-1,11.382L357.65,229.955z"
				/>
		</g>
		<path fill="#2B977E" d="M365.306,258.966c-6.03-0.642-10.556-4.736-10.089-9.136c0.469-4.394,5.756-7.441,11.785-6.799
			c6.032,0.643,10.558,4.735,10.09,9.129C376.624,256.559,371.338,259.608,365.306,258.966z M366.542,247.369
			c-2.742-0.292-5.151,1.094-5.365,3.096c-0.214,2.005,1.844,3.872,4.592,4.165c2.75,0.293,5.155-1.092,5.37-3.103
			C371.35,249.521,369.29,247.661,366.542,247.369z"/>
	</g>
</g>
</svg>
